<svg width="55" height="55" viewBox="0 0 55 55" fill="none" xmlns="http://www.w3.org/2000/svg">
<path fill-rule="evenodd" clip-rule="evenodd" d="M27.5 0C12.2222 0 0 12.2222 0 27.5C0 42.7778 12.2222 55 27.5 55C42.7778 55 55 42.7778 55 27.5C55 12.2222 42.7778 0 27.5 0ZM27.5 21.3889C24.1667 21.3889 21.1111 24.1667 21.1111 27.7778C21.1111 31.1111 23.8889 34.1667 27.5 34.1667C30.8333 34.1667 33.8889 31.3889 33.8889 27.7778C33.6111 24.1667 30.8333 21.3889 27.5 21.3889ZM27.5 1.66667C31.9444 3.61111 36.9445 5.83333 40.8333 8.61111C44.7222 11.3889 48.6111 15.8333 52.2222 19.4444C51.6667 24.4444 51.1111 30 49.4444 34.7222C48.0556 39.4444 45.2778 44.1667 42.7778 48.6111C38.0556 49.4444 32.5 50.5556 27.5 50.5556C22.5 50.5556 17.2222 49.4444 12.2222 48.6111C10 44.4444 6.94444 39.4444 5.55555 35C4.16667 30.2778 3.33333 24.7222 2.77778 19.7222C5.83333 16.3889 9.72223 11.6667 13.6111 8.88889C17.5 5.83333 23.0556 3.61111 27.5 1.66667Z" fill="url(#paint0_linear)"/>
<defs>
<linearGradient id="paint0_linear" x1="1.05107e-06" y1="55" x2="55" y2="1.05107e-06" gradientUnits="userSpaceOnUse">
<stop stop-color="#0E5F93"/>
<stop offset="1" stop-color="#0E5F93"/>
</linearGradient>
</defs>
</svg>
