<svg width="90" height="90" viewBox="0 0 90 90" fill="none" xmlns="http://www.w3.org/2000/svg">
<g clip-path="url(#clip0)">
<path opacity="0.1" d="M32.7403 2.46267L5.18938 23.1712C3.03998 24.7841 1.43819 27.0705 0.61632 29.6987C-0.205551 32.327 -0.204769 35.1604 0.618551 37.7882L11.1075 71.127C11.9248 73.7298 13.5081 75.9962 15.6315 77.6028C17.7548 79.2095 20.3096 80.0742 22.9313 80.0735H57.1432C59.7649 80.0742 62.3197 79.2095 64.443 77.6028C66.5664 75.9962 68.1497 73.7298 68.967 71.127L79.456 37.7882C80.2793 35.1604 80.2801 32.327 79.4582 29.6987C78.6363 27.0705 77.0345 24.7841 74.8851 23.1712L47.2964 2.46267C45.179 0.861814 42.632 0 40.0184 0C37.4047 0 34.8578 0.861814 32.7403 2.46267Z" fill="#22446D"/>
<path d="M89.8351 78.2576L53.1356 19.1089C52.7083 18.4189 51.9549 18 51.1441 18C50.3324 18 49.5792 18.4198 49.1517 19.1089L12.3532 78.4197C11.9047 79.1426 11.8819 80.0523 12.2965 80.7956C12.7096 81.5389 13.4951 82 14.3447 82H87.9449H87.9551C89.2498 82 90.2987 80.9502 90.2987 79.6564C90.2971 79.1316 90.1256 78.6485 89.8351 78.2576Z" fill="url(#paint0_linear)"/>
<path d="M48.4282 57.5393L47.6673 46.1543C47.5247 43.9355 47.4545 42.3426 47.4545 41.3766C47.4545 40.0615 47.7991 39.0354 48.4873 38.2989C49.1765 37.5599 50.0852 37.1924 51.2095 37.1924C52.5726 37.1924 53.4847 37.6637 53.9434 38.6063C54.4021 39.5498 54.6325 40.9096 54.6325 42.6823C54.6325 43.7288 54.5768 44.7921 54.4671 45.8672L53.4443 57.5858C53.3337 58.981 53.0963 60.0502 52.7306 60.796C52.3659 61.5399 51.7627 61.9117 50.924 61.9117C50.0676 61.9117 49.4737 61.5528 49.1419 60.8307C48.8083 60.1109 48.5702 59.013 48.4282 57.5393ZM51.0666 73.1793C50.0997 73.1793 49.255 72.8676 48.5354 72.2419C47.8143 71.6169 47.4545 70.7411 47.4545 69.6161C47.4545 68.6331 47.7991 67.7968 48.4873 67.1068C49.1765 66.4177 50.0211 66.073 51.0195 66.073C52.0185 66.073 52.8683 66.4168 53.5744 67.1068C54.2795 67.7959 54.6325 68.6329 54.6325 69.6161C54.6325 70.7251 54.2761 71.5959 53.5615 72.2302C52.8487 72.8624 52.0176 73.1793 51.0666 73.1793Z" fill="#F4FEFF"/>
</g>
<defs>
<linearGradient id="paint0_linear" x1="90.2987" y1="18" x2="1.32499" y2="41.3883" gradientUnits="userSpaceOnUse">
<stop stop-color="#43C7D9"/>
<stop offset="1" stop-color="#0E5F93"/>
</linearGradient>
<clipPath id="clip0">
<rect width="90" height="90" fill="white" transform="translate(0.000488281)"/>
</clipPath>
</defs>
</svg>
