<svg width="35" height="34" viewBox="0 0 35 34" fill="none" xmlns="http://www.w3.org/2000/svg">
<g clip-path="url(#clip0)">
<path fill-rule="evenodd" clip-rule="evenodd" d="M25.2118 20.8085V21.0301H25.006V21.3028H25.2118V21.7898C25.2118 21.9578 25.2561 22.0723 25.3447 22.1429C25.4239 22.2038 25.5538 22.2452 25.7089 22.2452C25.8419 22.2452 25.959 22.2306 26.0192 22.2135L26.016 21.9335C25.9717 21.9408 25.94 21.9432 25.8735 21.9432C25.731 21.9432 25.6835 21.8775 25.6835 21.7338V21.3028H26.0287V21.0301H25.6835V20.7086L25.2118 20.8085V20.8085ZM23.6825 22.1623C23.7996 22.2111 23.9801 22.2476 24.1828 22.2476C24.626 22.2476 24.8508 22.0845 24.8508 21.8604C24.8477 21.6875 24.7273 21.5707 24.4329 21.4927C24.2429 21.4416 24.1828 21.4124 24.1828 21.3539C24.1828 21.2955 24.2492 21.259 24.3664 21.259C24.4962 21.259 24.6323 21.2979 24.702 21.3271L24.7843 21.0715C24.6893 21.0349 24.531 21.0008 24.3505 21.0008C23.9674 21.0008 23.7205 21.1688 23.7205 21.3929C23.7173 21.5341 23.8408 21.6681 24.1637 21.7509C24.341 21.7971 24.3886 21.8263 24.3886 21.8896C24.3886 21.9505 24.3284 21.987 24.1828 21.987C24.0403 21.987 23.8566 21.9408 23.768 21.8994L23.6825 22.1623V22.1623ZM22.4666 21.4903C22.4793 21.3929 22.5616 21.2492 22.7643 21.2492C22.9859 21.2492 23.0365 21.4002 23.0365 21.4903H22.4666ZM23.4672 21.7435C23.4735 21.7167 23.483 21.6607 23.483 21.5974C23.483 21.3028 23.293 21.0033 22.7927 21.0033C22.2545 21.0033 22.0107 21.3369 22.0107 21.6388C22.0107 22.0114 22.3115 22.2452 22.8371 22.2452C23.0461 22.2452 23.2392 22.2208 23.3975 22.1697L23.3342 21.9189C23.2044 21.9529 23.0714 21.97 22.9067 21.97C22.6819 21.97 22.4824 21.8969 22.4698 21.7435H23.4672V21.7435ZM20.3041 21.0301L20.8677 22.2208H21.3489L21.9252 21.0301H21.4186L21.2191 21.5828C21.1843 21.6851 21.159 21.7752 21.1336 21.8726H21.1241C21.0988 21.7776 21.0734 21.6851 21.0355 21.5828L20.8265 21.0301H20.3041ZM18.6735 22.2208H19.1547V21.5341C19.1547 21.5 19.1579 21.4659 19.1705 21.4416C19.2054 21.3734 19.2845 21.3028 19.4175 21.3028C19.5917 21.3028 19.6613 21.4075 19.6613 21.5609V22.2208H20.1426V21.5171C20.1426 21.1664 19.9051 21.0033 19.5885 21.0033C19.3289 21.0033 19.1737 21.1177 19.1104 21.1956H19.1009L19.0787 21.0301H18.6608C18.6671 21.1372 18.6735 21.2614 18.6735 21.4099V22.2208V22.2208ZM17.7806 20.5796V22.2208H18.2619V20.5796H17.7806ZM16.6598 21.2663C16.8782 21.2663 16.9669 21.4464 16.9669 21.6218C16.9669 21.8385 16.8497 21.9821 16.6598 21.9821C16.454 21.9821 16.3431 21.8288 16.3431 21.6242C16.3431 21.4489 16.4318 21.2663 16.6598 21.2663ZM16.6756 21.0008C16.1753 21.0008 15.846 21.2468 15.846 21.634C15.846 22.0187 16.1943 22.2476 16.6471 22.2476C17.0619 22.2476 17.464 22.0479 17.464 21.6121C17.464 21.2517 17.1474 21.0008 16.6756 21.0008V21.0008ZM14.7569 22.2208H15.2381V21.6169C15.2381 21.5877 15.2413 21.5585 15.2476 21.5341C15.2793 21.4197 15.3996 21.3466 15.5769 21.3466C15.6307 21.3466 15.6687 21.3515 15.7067 21.3564V21.0081C15.6719 21.0033 15.6497 21.0008 15.6054 21.0008C15.4534 21.0008 15.2666 21.0739 15.1874 21.2492H15.1748L15.1558 21.0301H14.7442C14.7537 21.1323 14.7569 21.2468 14.7569 21.4221V22.2208ZM13.4397 20.862C13.4745 20.8547 13.541 20.8499 13.636 20.8499C13.8798 20.8499 14.0159 20.94 14.0159 21.091C14.0159 21.2565 13.8576 21.3564 13.6012 21.3564C13.5283 21.3564 13.4808 21.3539 13.4397 21.3466V20.862ZM12.9616 22.2208H13.4397V21.6315C13.484 21.6388 13.541 21.6412 13.6043 21.6412C13.8893 21.6412 14.1331 21.5852 14.2977 21.4684C14.4276 21.3783 14.494 21.2395 14.494 21.0788C14.494 20.9181 14.4054 20.7817 14.2661 20.6989C14.1236 20.6112 13.9115 20.5674 13.6138 20.5674C13.3194 20.5674 13.1104 20.582 12.9616 20.6015V22.2208ZM11.7426 22.2208H12.2239V21.6169C12.2239 21.5877 12.227 21.5585 12.2333 21.5341C12.265 21.4197 12.3853 21.3466 12.5626 21.3466C12.6165 21.3466 12.6545 21.3515 12.6925 21.3564V21.0081C12.6576 21.0033 12.6355 21.0008 12.5912 21.0008C12.4392 21.0008 12.2524 21.0739 12.1732 21.2492H12.1605L12.1415 21.0301H11.7299C11.7394 21.1323 11.7426 21.2468 11.7426 21.4221V22.2208ZM10.4381 21.4903C10.4507 21.3929 10.533 21.2492 10.7357 21.2492C10.9574 21.2492 11.008 21.4002 11.008 21.4903H10.4381ZM11.4386 21.7435C11.4449 21.7167 11.4544 21.6607 11.4544 21.5974C11.4544 21.3028 11.2644 21.0033 10.7642 21.0033C10.226 21.0033 9.98213 21.3369 9.98213 21.6388C9.98213 22.0114 10.2829 22.2452 10.8086 22.2452C11.0175 22.2452 11.2106 22.2208 11.3689 22.1697L11.3056 21.9189C11.1758 21.9529 11.0428 21.97 10.8782 21.97C10.6534 21.97 10.4539 21.8969 10.4413 21.7435H11.4386V21.7435ZM8.99111 20.8085V21.0301H8.78531V21.3028H8.99111V21.7898C8.99111 21.9578 9.03544 22.0723 9.12408 22.1429C9.20325 22.2038 9.33307 22.2452 9.4882 22.2452C9.6212 22.2452 9.73836 22.2306 9.7985 22.2135L9.79534 21.9335C9.75098 21.9408 9.71932 21.9432 9.65285 21.9432C9.51037 21.9432 9.46288 21.8775 9.46288 21.7338V21.3028H9.80802V21.0301H9.46288V20.7086L8.99111 20.8085V20.8085ZM7.08821 22.2208H7.5695V21.5341C7.5695 21.5 7.57265 21.4659 7.58527 21.4416C7.62011 21.3734 7.69928 21.3028 7.83228 21.3028C8.00642 21.3028 8.07608 21.4075 8.07608 21.5609V22.2208H8.55734V21.5171C8.55734 21.1664 8.31988 21.0033 8.00324 21.0033C7.74361 21.0033 7.58845 21.1177 7.52514 21.1956H7.51564L7.49348 21.0301H7.07553C7.08187 21.1372 7.08821 21.2614 7.08821 21.4099V22.2208V22.2208ZM6.19531 20.5796V22.2208H6.67657V20.5796H6.19531Z" fill="white"/>
<path fill-rule="evenodd" clip-rule="evenodd" d="M15.6115 15.1888C15.922 15.2305 16.2532 15.2582 16.7498 15.2582C18.5506 15.2582 19.7306 14.4796 19.7306 13.5483C19.7306 12.6448 18.7576 12.3528 17.5986 12.3528C17.0398 12.3528 16.6463 12.3806 16.398 12.4222L15.6115 15.1888V15.1888ZM13.873 11.0042C14.7627 10.8511 16.1703 10.754 17.5157 10.754C18.7576 10.754 20.2066 10.8932 21.2208 11.3795C22.1521 11.8106 22.7316 12.4639 22.7316 13.3678C22.7316 14.5494 21.9244 15.4391 20.8273 16.0091C19.6889 16.6068 18.0746 16.8709 16.3774 16.8709C15.8804 16.8709 15.4667 16.8432 15.1561 16.8154L14.2042 20.1936H11.2853L13.873 11.0042V11.0042ZM27.8156 10.7548C27.7133 11.1368 27.6101 11.5184 27.5082 11.9007C26.7918 14.5769 26.0751 17.2534 25.3611 19.9304C25.3382 20.0168 25.3072 20.047 25.2136 20.0466C24.1859 20.0426 23.1582 20.043 22.1305 20.0458C22.048 20.0458 22.0337 20.0303 22.0559 19.9486C22.7457 17.378 23.4327 14.8069 24.1225 12.2363C24.1466 12.1475 24.1296 12.1292 24.0407 12.1328C23.8599 12.1391 23.6786 12.1312 23.4973 12.136C23.4267 12.1379 23.4224 12.1134 23.4382 12.0558C23.5509 11.6441 23.6612 11.2316 23.773 10.8195C23.7829 10.7826 23.7857 10.7457 23.8464 10.7457C25.1617 10.7481 26.4765 10.7481 27.7918 10.7485C27.7977 10.7485 27.8037 10.7517 27.8156 10.7548V10.7548ZM12.3543 10.7527C12.2202 11.2537 12.0877 11.7503 11.9549 12.2465C11.2687 14.8088 10.5821 17.3707 9.89907 19.9334C9.87529 20.023 9.83877 20.0464 9.74914 20.046C8.7274 20.0429 7.70605 20.0441 6.68468 20.0441H6.57007C7.27609 17.4044 7.97972 14.7743 8.68534 12.1342C8.46519 12.1342 8.25378 12.1323 8.04201 12.1358C7.97415 12.137 7.95752 12.1235 7.97693 12.0529C8.09078 11.6416 8.20064 11.2291 8.3109 10.8166C8.32321 10.7694 8.3387 10.7456 8.39698 10.7456C9.69955 10.748 11.0021 10.7476 12.3047 10.7476C12.3194 10.7476 12.3344 10.7507 12.3543 10.7527V10.7527Z" fill="white"/>
<path fill-rule="evenodd" clip-rule="evenodd" d="M4.90233 13.3716H5.01856C5.87133 13.3716 6.7241 13.3732 7.5769 13.3696C7.66178 13.3692 7.67326 13.3883 7.65147 13.4652C7.60347 13.6334 7.60665 13.6342 7.42736 13.6342C6.59005 13.6342 5.75314 13.6354 4.91583 13.6322C4.8349 13.6318 4.8 13.6516 4.77303 13.7321C4.47316 14.6357 4.30024 15.5607 4.28793 16.5138C4.28555 16.6704 4.28435 16.6704 4.44543 16.6704C5.1887 16.6704 5.93243 16.6716 6.6757 16.6689C6.76062 16.6689 6.79037 16.6788 6.76062 16.7736C6.71143 16.931 6.71776 16.933 6.55715 16.933C5.8293 16.933 5.10143 16.9338 4.37362 16.9314C4.30104 16.931 4.28356 16.9485 4.28634 17.0207C4.32087 18.0143 4.51403 18.9757 4.85274 19.9098C4.87261 19.9645 4.90193 19.9701 4.94953 19.9701C5.23076 19.9685 5.51199 19.9693 5.79321 19.9693H5.88878C5.88642 20.0391 5.85587 20.095 5.84357 20.1553C5.83325 20.2053 5.79517 20.1942 5.76266 20.1942C5.50366 20.1946 5.24463 20.1942 4.9777 20.1942C5.02212 20.337 5.08282 20.4659 5.1419 20.5952C5.24224 20.8169 5.35054 21.0347 5.47351 21.2445C5.51318 21.3124 5.52426 21.373 5.49732 21.4468C5.47192 21.5158 5.45606 21.5884 5.43264 21.6729C5.2839 21.4329 5.15778 21.1969 5.03757 20.9581C4.92535 20.7352 4.82222 20.5084 4.73379 20.2751C4.71077 20.2136 4.68221 20.1922 4.61477 20.1926C3.93055 20.1954 3.24635 20.1914 2.56253 20.197C2.45824 20.1982 2.39199 20.17 2.34758 20.0792C2.33169 20.0462 2.3083 20.0169 2.27775 19.9693H2.38841C3.09761 19.9693 3.80679 19.9685 4.51562 19.9705C4.58621 19.9709 4.60804 19.9645 4.58027 19.8856C4.24829 18.9499 4.06266 17.9861 4.03567 16.9929C4.03368 16.9191 3.99281 16.933 3.95158 16.933C3.13291 16.933 2.31464 16.931 1.49637 16.9354C1.39918 16.9362 1.37659 16.9049 1.39165 16.8204C1.39563 16.7989 1.39759 16.7767 1.39682 16.7549C1.39483 16.6883 1.4218 16.6681 1.49123 16.6689C1.97868 16.672 2.46574 16.6704 2.95325 16.6704C3.28759 16.6704 3.62156 16.6692 3.95593 16.6716C4.01387 16.672 4.03527 16.6609 4.03527 16.5962C4.03805 15.615 4.20308 14.6603 4.51005 13.7289C4.53506 13.6532 4.52511 13.6354 4.44384 13.6357C3.80679 13.6385 3.1694 13.6373 2.53201 13.6373H2.40745C2.46219 13.5473 2.5078 13.4692 2.55699 13.3926C2.58001 13.3565 2.62008 13.3724 2.65256 13.3724C3.28046 13.3716 3.90835 13.3704 4.53625 13.3736C4.60724 13.374 4.6366 13.3525 4.66197 13.2867C5.06059 12.2471 5.62105 11.3007 6.32034 10.4356C6.34134 10.4095 6.36041 10.3821 6.39133 10.3404H6.00103C6.17319 10.2171 6.33105 10.0695 6.56269 10.11C6.59403 10.1156 6.62256 10.1108 6.64399 10.0787C6.77608 9.87639 6.97839 9.76766 7.18899 9.66893C7.28934 9.6217 7.38729 9.57055 7.49162 9.52968C7.31355 9.71809 7.12633 9.8946 6.9633 10.0945C6.98472 10.1223 7.01166 10.1096 7.03431 10.1096C8.08382 10.1104 9.13333 10.1096 10.1828 10.1124C10.2503 10.1124 10.2804 10.0862 10.3109 10.033C10.7183 9.32621 11.2062 8.68013 11.7734 8.09383C11.8071 8.05857 11.8424 8.03634 11.8916 8.02682C12.0062 8.00423 12.1196 7.97525 12.2394 7.95743C11.5877 8.59959 11.0297 9.31075 10.5553 10.1104H10.6469C11.6468 10.1104 12.6464 10.1096 13.6459 10.1124C13.7181 10.1124 13.7463 10.0902 13.7677 10.0223C13.9696 9.38691 14.1842 8.75546 14.48 8.15613C14.5669 7.98002 14.6653 7.80945 14.7494 7.63218C14.7859 7.55562 14.8378 7.52826 14.9156 7.52706C14.9715 7.52627 15.0274 7.52149 15.0948 7.51831C15.0068 7.67859 14.9215 7.82889 14.8406 7.98201C14.4951 8.63764 14.2341 9.3282 14.0124 10.0342C13.9922 10.0989 14.0081 10.1187 14.0723 10.1108C14.0969 10.1076 14.1223 10.1104 14.1473 10.1104C18.7987 10.1104 23.4501 10.1108 28.1011 10.1088C28.2114 10.1084 28.3086 10.1243 28.4006 10.1881C28.4716 10.2373 28.5501 10.2762 28.6259 10.3353H28.5216C21.2932 10.3353 14.0648 10.3357 6.83598 10.3337C6.76022 10.3337 6.71143 10.3551 6.66303 10.4138C5.95104 11.2797 5.36046 12.2185 4.942 13.2617C4.9293 13.2926 4.91901 13.3248 4.90233 13.3716V13.3716Z" fill="white"/>
<path fill-rule="evenodd" clip-rule="evenodd" d="M30.0575 20.1972H29.9564C28.7784 20.1972 27.6008 20.1972 26.4231 20.1972C26.3041 20.1972 26.3121 20.1989 26.3343 20.0846C26.3533 19.9886 26.3969 19.9664 26.4913 19.9668C27.6785 19.9708 28.8656 19.9684 30.0524 19.9716C30.1401 19.9716 30.1801 19.949 30.2103 19.8637C30.5359 18.9455 30.7227 18.0015 30.7612 17.0281C30.7648 16.9404 30.7334 16.9345 30.6625 16.9349C29.5443 16.9365 28.4258 16.9361 27.3076 16.9361C27.1898 16.9361 27.1898 16.9361 27.2192 16.8219C27.2589 16.6703 27.2589 16.6703 27.4183 16.6703C28.4991 16.6703 29.58 16.6695 30.6609 16.6723C30.7402 16.6727 30.7652 16.6584 30.764 16.5724C30.7489 15.5954 30.5978 14.6415 30.2948 13.7118C30.2749 13.6511 30.2491 13.6325 30.1849 13.6325C29.5197 13.6353 28.8542 13.6345 28.189 13.6345H28.0878C28.0858 13.6218 28.0831 13.6154 28.0843 13.6099C28.1366 13.3719 28.1366 13.3719 28.3833 13.3719C28.9489 13.3719 29.5142 13.3707 30.0798 13.3731C30.1504 13.3735 30.1733 13.3679 30.1389 13.2902C29.7858 12.4992 29.3789 11.7393 28.8716 11.0353C28.8188 10.9623 28.7974 10.8976 28.8323 10.8135C28.8526 10.7651 28.8629 10.7124 28.8775 10.6624C28.914 10.6545 28.9208 10.6854 28.9339 10.7029C29.5383 11.4969 30.0298 12.3545 30.3844 13.2886C30.4102 13.356 30.4427 13.3739 30.5121 13.3735C31.165 13.3707 31.8178 13.3735 32.4707 13.3695C32.552 13.3691 32.5973 13.3933 32.6278 13.4655C32.6504 13.519 32.6826 13.5686 32.7167 13.6309H30.5169C30.5185 13.7067 30.5494 13.7653 30.5684 13.8268C30.8409 14.6986 30.9996 15.5887 31.0087 16.5038C31.0103 16.6703 31.0115 16.6703 31.1792 16.6703C31.9416 16.6703 32.7036 16.6711 33.4659 16.6692C33.529 16.6687 33.5544 16.6806 33.5658 16.75C33.5956 16.9337 33.6008 16.9333 33.4136 16.9333C32.6421 16.9333 31.8706 16.9337 31.0992 16.9317C31.0305 16.9313 31.0087 16.948 31.0071 17.019C30.9833 17.9872 30.8005 18.926 30.4843 19.8407C30.4705 19.8811 30.4574 19.9224 30.4415 19.97H32.6008C32.5485 20.0434 32.5037 20.1053 32.46 20.1679C32.4327 20.2076 32.3926 20.1937 32.3573 20.1937C31.7199 20.1945 31.0829 20.1961 30.4455 20.1921C30.3661 20.1917 30.3348 20.2183 30.3063 20.2897C29.8882 21.3432 29.2952 22.2912 28.5725 23.1614C28.5475 23.1919 28.5229 23.2229 28.4888 23.2653H29.0477C28.853 23.3958 28.6915 23.531 28.4623 23.493C28.3199 23.4692 28.2227 23.5247 28.1271 23.6342C27.8693 23.9297 27.5266 24.1367 27.1176 24.266C27.2624 24.1308 27.3933 24.0114 27.5198 23.888C27.6464 23.7647 27.7685 23.637 27.8935 23.51C27.8665 23.4854 27.8372 23.4969 27.8114 23.4965C26.7928 23.4961 25.7746 23.4965 24.756 23.495C24.693 23.4946 24.6561 23.512 24.6224 23.5687C24.1801 24.31 23.6407 24.9752 23.0219 25.5765C22.9922 25.6055 22.962 25.6261 22.9188 25.6344C22.7847 25.6602 22.6518 25.6916 22.4948 25.7257C22.6201 25.6099 22.7292 25.5123 22.8343 25.4107C23.4043 24.8582 23.8989 24.245 24.3233 23.5743C24.336 23.5544 24.363 23.5346 24.3499 23.5092C24.3364 23.4823 24.305 23.4969 24.282 23.4969C23.298 23.4961 22.3139 23.4973 21.3298 23.4942C21.2572 23.4938 21.2422 23.5302 21.2251 23.5834C21.0205 24.2224 20.7781 24.8463 20.4727 25.4449C20.3736 25.6392 20.2684 25.8304 20.1538 26.0164C20.1185 26.0731 19.9261 26.1374 19.8714 26.1049C19.8337 26.0822 19.8523 26.0414 19.8666 26.0136C19.8936 25.9609 19.9281 25.9125 19.959 25.8617C20.3965 25.1438 20.7119 24.3723 20.9701 23.5755C20.9895 23.5168 20.9835 23.4858 20.9122 23.4958C20.888 23.4989 20.8626 23.4961 20.8376 23.4961C16.1422 23.4961 11.4475 23.4958 6.75206 23.4981C6.63228 23.4981 6.52636 23.4807 6.42721 23.4109C6.35858 23.3625 6.28203 23.326 6.20868 23.2681H6.31138H27.6781C27.8125 23.2681 27.947 23.2669 28.0815 23.2689C28.1243 23.2697 28.156 23.2597 28.1862 23.2244C28.9497 22.3439 29.5824 21.3805 30.029 20.3C30.0413 20.2694 30.0627 20.2401 30.0575 20.1972V20.1972Z" fill="white"/>
<path fill-rule="evenodd" clip-rule="evenodd" d="M5.69391 23.4929C4.98312 23.4929 4.2989 23.4929 3.6155 23.4933C3.57819 23.4937 3.55085 23.4807 3.52266 23.4576C2.57907 22.6838 1.75483 21.8041 1.11863 20.7569C0.595854 19.8974 0.23611 18.9752 0.0837893 17.9784C-0.141481 16.5034 0.09132 15.096 0.73587 13.7542C1.14242 12.9086 1.68347 12.1558 2.32126 11.4707C3.34459 10.3724 4.54523 9.5066 5.85217 8.78191C7.42685 7.90851 9.09908 7.28379 10.8391 6.83203C11.845 6.57061 12.864 6.37467 13.8937 6.23584C14.664 6.13232 15.4366 6.05618 16.2133 6.02166C16.3695 6.01495 16.5254 6.01254 16.6809 6.00063C16.7392 5.99625 16.7412 6.01452 16.7352 6.06133C16.6785 6.51946 16.6242 6.97798 16.5683 7.43608C16.5084 7.92834 16.4449 8.42054 16.389 8.91317C16.3798 8.99132 16.358 9.01232 16.2815 9.00243C15.9257 8.95602 15.5695 8.91317 15.2133 8.87193C15.1602 8.86599 15.1443 8.84812 15.151 8.7958C15.2046 8.36859 15.2573 7.94144 15.3085 7.51383C15.3371 7.27583 15.3426 7.32267 15.1487 7.34088C13.3273 7.51383 11.5396 7.85772 9.79797 8.42691C8.2221 8.94212 6.72398 9.6224 5.34207 10.5446C4.35207 11.2054 3.45565 11.9725 2.71988 12.9149C2.08999 13.7213 1.61879 14.6074 1.38915 15.6113C1.07896 16.9658 1.25626 18.2636 1.85361 19.5099C2.36173 20.5681 3.10341 21.4451 3.97684 22.2181C4.49484 22.6763 5.05172 23.0824 5.63597 23.4521C5.6483 23.46 5.66018 23.4691 5.69391 23.4929V23.4929Z" fill="white" stroke="white" stroke-width="0.0762" stroke-miterlimit="22.9256"/>
<path fill-rule="evenodd" clip-rule="evenodd" d="M29.3289 10.1105H29.4106C30.0572 10.1105 30.7037 10.1109 31.3502 10.1101C31.3978 10.1101 31.4399 10.1145 31.4803 10.1474C32.3629 10.8744 33.1442 11.6935 33.7634 12.6597C34.3496 13.574 34.753 14.5608 34.9172 15.6378C35.1239 16.9926 34.9407 18.2983 34.3996 19.5553C34.0006 20.4823 33.4389 21.3034 32.7619 22.0471C31.7493 23.16 30.5526 24.037 29.2468 24.772C27.6944 25.6462 26.0444 26.2764 24.3261 26.735C23.3519 26.9948 22.3655 27.1935 21.3675 27.3371C20.4315 27.4719 19.491 27.5643 18.5454 27.6013C18.4709 27.604 18.3963 27.608 18.3217 27.6143C18.2697 27.6187 18.2571 27.5969 18.2634 27.5489C18.3039 27.2304 18.3431 26.9111 18.382 26.5926C18.4482 26.0476 18.5141 25.5026 18.5799 24.9576C18.5926 24.8552 18.6065 24.7533 18.6168 24.651C18.6208 24.6082 18.6394 24.6014 18.6783 24.6062C19.0464 24.653 19.4144 24.6998 19.7833 24.7418C19.8504 24.7494 19.8535 24.7748 19.8464 24.8311C19.7869 25.2983 19.7318 25.766 19.6727 26.2328C19.664 26.3022 19.7056 26.286 19.7401 26.2824C19.9852 26.2582 20.2308 26.236 20.4755 26.2066C21.1133 26.1297 21.7487 26.0341 22.3794 25.9107C24.7096 25.455 26.9332 24.7069 28.9851 23.4912C30.0191 22.8784 30.9703 22.1589 31.7881 21.2736C32.56 20.4383 33.1641 19.501 33.502 18.4055C33.6976 17.7704 33.7872 17.1204 33.7555 16.4568C33.7027 15.3406 33.3433 14.3213 32.75 13.38C32.1154 12.3741 31.2871 11.5503 30.3467 10.8328C30.0314 10.592 29.7049 10.3675 29.3702 10.1549C29.3559 10.1458 29.3353 10.1418 29.3289 10.1105V10.1105Z" fill="white"/>
</g>
<defs>
<clipPath id="clip0">
<rect width="35" height="34" fill="white"/>
</clipPath>
</defs>
</svg>
