<svg width="160" height="35" viewBox="0 0 160 35" fill="none" xmlns="http://www.w3.org/2000/svg">
<path d="M91.966 5.00391V14.9999H99.554V13.1519H94.164V10.7019H99.008V8.99391H94.164V6.85191H99.442V5.00391H91.966ZM100.834 7.76191V14.9999H102.822V11.2059C102.822 10.4686 102.943 9.94124 103.186 9.62391C103.429 9.29724 103.821 9.13391 104.362 9.13391C104.838 9.13391 105.169 9.28324 105.356 9.58191C105.543 9.87124 105.636 10.3146 105.636 10.9119V14.9999H107.624V10.5479C107.624 10.0999 107.582 9.69391 107.498 9.32991C107.423 8.95658 107.288 8.64391 107.092 8.39191C106.896 8.13058 106.625 7.92991 106.28 7.78991C105.944 7.64058 105.51 7.56591 104.978 7.56591C104.558 7.56591 104.147 7.66391 103.746 7.85991C103.345 8.04658 103.018 8.34991 102.766 8.76991H102.724V7.76191H100.834ZM111.653 7.76191V5.59191H109.665V7.76191H108.461V9.09191H109.665V13.3619C109.665 13.7259 109.726 14.0199 109.847 14.2439C109.968 14.4679 110.132 14.6406 110.337 14.7619C110.552 14.8832 110.794 14.9626 111.065 14.9999C111.345 15.0466 111.639 15.0699 111.947 15.0699C112.143 15.0699 112.344 15.0652 112.549 15.0559C112.754 15.0466 112.941 15.0279 113.109 14.9999V13.4599C113.016 13.4786 112.918 13.4926 112.815 13.5019C112.712 13.5112 112.605 13.5159 112.493 13.5159C112.157 13.5159 111.933 13.4599 111.821 13.3479C111.709 13.2359 111.653 13.0119 111.653 12.6759V9.09191H113.109V7.76191H111.653ZM118.927 10.6039H115.693C115.702 10.4639 115.73 10.3052 115.777 10.1279C115.833 9.95058 115.921 9.78258 116.043 9.62391C116.173 9.46524 116.341 9.33458 116.547 9.23191C116.761 9.11991 117.027 9.06391 117.345 9.06391C117.83 9.06391 118.189 9.19458 118.423 9.45591C118.665 9.71724 118.833 10.0999 118.927 10.6039ZM115.693 11.8639H120.915C120.952 11.3039 120.905 10.7672 120.775 10.2539C120.644 9.74058 120.429 9.28324 120.131 8.88191C119.841 8.48058 119.468 8.16324 119.011 7.92991C118.553 7.68724 118.017 7.56591 117.401 7.56591C116.85 7.56591 116.346 7.66391 115.889 7.85991C115.441 8.05591 115.053 8.32658 114.727 8.67191C114.4 9.00791 114.148 9.40924 113.971 9.87591C113.793 10.3426 113.705 10.8466 113.705 11.3879C113.705 11.9479 113.789 12.4612 113.957 12.9279C114.134 13.3946 114.381 13.7959 114.699 14.1319C115.016 14.4679 115.403 14.7292 115.861 14.9159C116.318 15.0932 116.831 15.1819 117.401 15.1819C118.222 15.1819 118.922 14.9952 119.501 14.6219C120.079 14.2486 120.509 13.6279 120.789 12.7599H119.039C118.973 12.9839 118.796 13.1986 118.507 13.4039C118.217 13.5999 117.872 13.6979 117.471 13.6979C116.911 13.6979 116.481 13.5532 116.183 13.2639C115.884 12.9746 115.721 12.5079 115.693 11.8639ZM122.094 7.76191V14.9999H124.082V11.7379C124.082 11.4112 124.115 11.1079 124.18 10.8279C124.245 10.5479 124.353 10.3052 124.502 10.0999C124.661 9.88524 124.866 9.71724 125.118 9.59591C125.37 9.47458 125.678 9.41391 126.042 9.41391C126.163 9.41391 126.289 9.42324 126.42 9.44191C126.551 9.45124 126.663 9.46524 126.756 9.48391V7.63591C126.597 7.58924 126.453 7.56591 126.322 7.56591C126.07 7.56591 125.827 7.60324 125.594 7.67791C125.361 7.75258 125.141 7.85991 124.936 7.99991C124.731 8.13058 124.549 8.29391 124.39 8.48991C124.231 8.67658 124.105 8.88191 124.012 9.10591H123.984V7.76191H122.094ZM131.189 13.6979C130.872 13.6979 130.601 13.6326 130.377 13.5019C130.153 13.3712 129.971 13.2032 129.831 12.9979C129.701 12.7832 129.603 12.5359 129.537 12.2559C129.481 11.9759 129.453 11.6912 129.453 11.4019C129.453 11.1032 129.481 10.8139 129.537 10.5339C129.593 10.2539 129.687 10.0066 129.817 9.79191C129.957 9.57724 130.135 9.40458 130.349 9.27391C130.573 9.13391 130.849 9.06391 131.175 9.06391C131.493 9.06391 131.759 9.13391 131.973 9.27391C132.197 9.40458 132.379 9.58191 132.519 9.80591C132.659 10.0206 132.757 10.2679 132.813 10.5479C132.879 10.8279 132.911 11.1126 132.911 11.4019C132.911 11.6912 132.883 11.9759 132.827 12.2559C132.771 12.5359 132.673 12.7832 132.533 12.9979C132.403 13.2032 132.225 13.3712 132.001 13.5019C131.787 13.6326 131.516 13.6979 131.189 13.6979ZM127.535 7.76191V17.5339H129.523V14.1039H129.551C129.794 14.4586 130.102 14.7292 130.475 14.9159C130.858 15.0932 131.273 15.1819 131.721 15.1819C132.253 15.1819 132.715 15.0792 133.107 14.8739C133.509 14.6686 133.84 14.3932 134.101 14.0479C134.372 13.7026 134.573 13.3059 134.703 12.8579C134.834 12.4099 134.899 11.9432 134.899 11.4579C134.899 10.9446 134.834 10.4546 134.703 9.98791C134.573 9.51191 134.372 9.09658 134.101 8.74191C133.831 8.38724 133.49 8.10258 133.079 7.88791C132.669 7.67324 132.179 7.56591 131.609 7.56591C131.161 7.56591 130.751 7.65458 130.377 7.83191C130.004 8.00924 129.696 8.29391 129.453 8.68591H129.425V7.76191H127.535ZM136.094 7.76191V14.9999H138.082V11.7379C138.082 11.4112 138.115 11.1079 138.18 10.8279C138.245 10.5479 138.353 10.3052 138.502 10.0999C138.661 9.88524 138.866 9.71724 139.118 9.59591C139.37 9.47458 139.678 9.41391 140.042 9.41391C140.163 9.41391 140.289 9.42324 140.42 9.44191C140.551 9.45124 140.663 9.46524 140.756 9.48391V7.63591C140.597 7.58924 140.453 7.56591 140.322 7.56591C140.07 7.56591 139.827 7.60324 139.594 7.67791C139.361 7.75258 139.141 7.85991 138.936 7.99991C138.731 8.13058 138.549 8.29391 138.39 8.48991C138.231 8.67658 138.105 8.88191 138.012 9.10591H137.984V7.76191H136.094ZM143.579 6.64191V5.00391H141.591V6.64191H143.579ZM141.591 7.76191V14.9999H143.579V7.76191H141.591ZM146.685 12.6479H144.795C144.813 13.1332 144.921 13.5392 145.117 13.8659C145.322 14.1832 145.579 14.4399 145.887 14.6359C146.204 14.8319 146.563 14.9719 146.965 15.0559C147.366 15.1399 147.777 15.1819 148.197 15.1819C148.607 15.1819 149.009 15.1399 149.401 15.0559C149.802 14.9812 150.157 14.8459 150.465 14.6499C150.773 14.4539 151.02 14.1972 151.207 13.8799C151.403 13.5532 151.501 13.1519 151.501 12.6759C151.501 12.3399 151.435 12.0599 151.305 11.8359C151.174 11.6026 151.001 11.4112 150.787 11.2619C150.572 11.1032 150.325 10.9772 150.045 10.8839C149.774 10.7906 149.494 10.7112 149.205 10.6459C148.925 10.5806 148.649 10.5199 148.379 10.4639C148.108 10.4079 147.865 10.3472 147.651 10.2819C147.445 10.2072 147.277 10.1139 147.147 10.0019C147.016 9.88991 146.951 9.74524 146.951 9.56791C146.951 9.41858 146.988 9.30191 147.063 9.21791C147.137 9.12458 147.226 9.05458 147.329 9.00791C147.441 8.96124 147.562 8.93324 147.693 8.92391C147.823 8.90524 147.945 8.89591 148.057 8.89591C148.411 8.89591 148.719 8.96591 148.981 9.10591C149.242 9.23658 149.387 9.49324 149.415 9.87591H151.305C151.267 9.42791 151.151 9.05924 150.955 8.76991C150.768 8.47124 150.53 8.23324 150.241 8.05591C149.951 7.87858 149.62 7.75258 149.247 7.67791C148.883 7.60324 148.505 7.56591 148.113 7.56591C147.721 7.56591 147.338 7.60324 146.965 7.67791C146.591 7.74324 146.255 7.86458 145.957 8.04191C145.658 8.20991 145.415 8.44324 145.229 8.74191C145.051 9.04058 144.963 9.42324 144.963 9.88991C144.963 10.2072 145.028 10.4779 145.159 10.7019C145.289 10.9166 145.462 11.0986 145.677 11.2479C145.891 11.3879 146.134 11.5046 146.405 11.5979C146.685 11.6819 146.969 11.7566 147.259 11.8219C147.968 11.9712 148.519 12.1206 148.911 12.2699C149.312 12.4192 149.513 12.6432 149.513 12.9419C149.513 13.1192 149.471 13.2686 149.387 13.3899C149.303 13.5019 149.195 13.5952 149.065 13.6699C148.943 13.7352 148.803 13.7866 148.645 13.8239C148.495 13.8519 148.351 13.8659 148.211 13.8659C148.015 13.8659 147.823 13.8426 147.637 13.7959C147.459 13.7492 147.301 13.6792 147.161 13.5859C147.021 13.4832 146.904 13.3572 146.811 13.2079C146.727 13.0492 146.685 12.8626 146.685 12.6479ZM157.536 10.6039H154.302C154.312 10.4639 154.34 10.3052 154.386 10.1279C154.442 9.95058 154.531 9.78258 154.652 9.62391C154.783 9.46524 154.951 9.33458 155.156 9.23191C155.371 9.11991 155.637 9.06391 155.954 9.06391C156.44 9.06391 156.799 9.19458 157.032 9.45591C157.275 9.71724 157.443 10.0999 157.536 10.6039ZM154.302 11.8639H159.524C159.562 11.3039 159.515 10.7672 159.384 10.2539C159.254 9.74058 159.039 9.28324 158.74 8.88191C158.451 8.48058 158.078 8.16324 157.62 7.92991C157.163 7.68724 156.626 7.56591 156.01 7.56591C155.46 7.56591 154.956 7.66391 154.498 7.85991C154.05 8.05591 153.663 8.32658 153.336 8.67191C153.01 9.00791 152.758 9.40924 152.58 9.87591C152.403 10.3426 152.314 10.8466 152.314 11.3879C152.314 11.9479 152.398 12.4612 152.566 12.9279C152.744 13.3946 152.991 13.7959 153.308 14.1319C153.626 14.4679 154.013 14.7292 154.47 14.9159C154.928 15.0932 155.441 15.1819 156.01 15.1819C156.832 15.1819 157.532 14.9952 158.11 14.6219C158.689 14.2486 159.118 13.6279 159.398 12.7599H157.648C157.583 12.9839 157.406 13.1986 157.116 13.4039C156.827 13.5999 156.482 13.6979 156.08 13.6979C155.52 13.6979 155.091 13.5532 154.792 13.2639C154.494 12.9746 154.33 12.5079 154.302 11.8639ZM93.464 26.6819H91.336C91.327 27.2979 91.439 27.8299 91.672 28.2779C91.905 28.7259 92.218 29.0946 92.61 29.3839C93.011 29.6732 93.469 29.8832 93.982 30.0139C94.505 30.1539 95.041 30.2239 95.592 30.2239C96.273 30.2239 96.871 30.1446 97.384 29.9859C97.907 29.8272 98.341 29.6079 98.686 29.3279C99.041 29.0386 99.307 28.6979 99.484 28.3059C99.661 27.9139 99.75 27.4892 99.75 27.0319C99.75 26.4719 99.629 26.0146 99.386 25.6599C99.153 25.2959 98.873 25.0066 98.546 24.7919C98.219 24.5772 97.888 24.4232 97.552 24.3299C97.225 24.2272 96.969 24.1572 96.782 24.1199C96.157 23.9612 95.648 23.8306 95.256 23.7279C94.873 23.6252 94.57 23.5226 94.346 23.4199C94.131 23.3172 93.987 23.2052 93.912 23.0839C93.837 22.9626 93.8 22.8039 93.8 22.6079C93.8 22.3932 93.847 22.2159 93.94 22.0759C94.033 21.9359 94.15 21.8192 94.29 21.7259C94.439 21.6326 94.603 21.5672 94.78 21.5299C94.957 21.4926 95.135 21.4739 95.312 21.4739C95.583 21.4739 95.83 21.4972 96.054 21.5439C96.287 21.5906 96.493 21.6699 96.67 21.7819C96.847 21.8939 96.987 22.0479 97.09 22.2439C97.202 22.4399 97.267 22.6872 97.286 22.9859H99.414C99.414 22.4072 99.302 21.9172 99.078 21.5159C98.863 21.1052 98.569 20.7692 98.196 20.5079C97.823 20.2466 97.393 20.0599 96.908 19.9479C96.432 19.8266 95.933 19.7659 95.41 19.7659C94.962 19.7659 94.514 19.8266 94.066 19.9479C93.618 20.0692 93.217 20.2559 92.862 20.5079C92.507 20.7599 92.218 21.0772 91.994 21.4599C91.779 21.8332 91.672 22.2766 91.672 22.7899C91.672 23.2472 91.756 23.6392 91.924 23.9659C92.101 24.2832 92.33 24.5492 92.61 24.7639C92.89 24.9786 93.207 25.1559 93.562 25.2959C93.917 25.4266 94.281 25.5386 94.654 25.6319C95.018 25.7346 95.377 25.8279 95.732 25.9119C96.087 25.9959 96.404 26.0939 96.684 26.2059C96.964 26.3179 97.188 26.4579 97.356 26.6259C97.533 26.7939 97.622 27.0132 97.622 27.2839C97.622 27.5359 97.557 27.7459 97.426 27.9139C97.295 28.0726 97.132 28.1986 96.936 28.2919C96.74 28.3852 96.53 28.4506 96.306 28.4879C96.082 28.5159 95.872 28.5299 95.676 28.5299C95.387 28.5299 95.107 28.4972 94.836 28.4319C94.565 28.3572 94.327 28.2499 94.122 28.1099C93.926 27.9606 93.767 27.7692 93.646 27.5359C93.525 27.3026 93.464 27.0179 93.464 26.6819ZM105.72 25.6039H102.486C102.495 25.4639 102.523 25.3052 102.57 25.1279C102.626 24.9506 102.714 24.7826 102.836 24.6239C102.966 24.4652 103.134 24.3346 103.34 24.2319C103.554 24.1199 103.82 24.0639 104.138 24.0639C104.623 24.0639 104.982 24.1946 105.216 24.4559C105.458 24.7172 105.626 25.0999 105.72 25.6039ZM102.486 26.8639H107.708C107.745 26.3039 107.698 25.7672 107.568 25.2539C107.437 24.7406 107.222 24.2832 106.924 23.8819C106.634 23.4806 106.261 23.1632 105.804 22.9299C105.346 22.6872 104.81 22.5659 104.194 22.5659C103.643 22.5659 103.139 22.6639 102.682 22.8599C102.234 23.0559 101.846 23.3266 101.52 23.6719C101.193 24.0079 100.941 24.4092 100.764 24.8759C100.586 25.3426 100.498 25.8466 100.498 26.3879C100.498 26.9479 100.582 27.4612 100.75 27.9279C100.927 28.3946 101.174 28.7959 101.492 29.1319C101.809 29.4679 102.196 29.7292 102.654 29.9159C103.111 30.0932 103.624 30.1819 104.194 30.1819C105.015 30.1819 105.715 29.9952 106.294 29.6219C106.872 29.2486 107.302 28.6279 107.582 27.7599H105.832C105.766 27.9839 105.589 28.1986 105.3 28.4039C105.01 28.5999 104.665 28.6979 104.264 28.6979C103.704 28.6979 103.274 28.5532 102.976 28.2639C102.677 27.9746 102.514 27.5079 102.486 26.8639ZM108.887 22.7619V29.9999H110.875V26.7379C110.875 26.4112 110.908 26.1079 110.973 25.8279C111.038 25.5479 111.146 25.3052 111.295 25.0999C111.454 24.8852 111.659 24.7172 111.911 24.5959C112.163 24.4746 112.471 24.4139 112.835 24.4139C112.956 24.4139 113.082 24.4232 113.213 24.4419C113.344 24.4512 113.456 24.4652 113.549 24.4839V22.6359C113.39 22.5892 113.246 22.5659 113.115 22.5659C112.863 22.5659 112.62 22.6032 112.387 22.6779C112.154 22.7526 111.934 22.8599 111.729 22.9999C111.524 23.1306 111.342 23.2939 111.183 23.4899C111.024 23.6766 110.898 23.8819 110.805 24.1059H110.777V22.7619H108.887ZM118.332 29.9999L120.782 22.7619H118.808L117.282 27.7039H117.254L115.728 22.7619H113.642L116.12 29.9999H118.332ZM126.474 25.6039H123.24C123.249 25.4639 123.277 25.3052 123.324 25.1279C123.38 24.9506 123.468 24.7826 123.59 24.6239C123.72 24.4652 123.888 24.3346 124.094 24.2319C124.308 24.1199 124.574 24.0639 124.892 24.0639C125.377 24.0639 125.736 24.1946 125.97 24.4559C126.212 24.7172 126.38 25.0999 126.474 25.6039ZM123.24 26.8639H128.462C128.499 26.3039 128.452 25.7672 128.322 25.2539C128.191 24.7406 127.976 24.2832 127.678 23.8819C127.388 23.4806 127.015 23.1632 126.558 22.9299C126.1 22.6872 125.564 22.5659 124.948 22.5659C124.397 22.5659 123.893 22.6639 123.436 22.8599C122.988 23.0559 122.6 23.3266 122.274 23.6719C121.947 24.0079 121.695 24.4092 121.518 24.8759C121.34 25.3426 121.252 25.8466 121.252 26.3879C121.252 26.9479 121.336 27.4612 121.504 27.9279C121.681 28.3946 121.928 28.7959 122.246 29.1319C122.563 29.4679 122.95 29.7292 123.408 29.9159C123.865 30.0932 124.378 30.1819 124.948 30.1819C125.769 30.1819 126.469 29.9952 127.048 29.6219C127.626 29.2486 128.056 28.6279 128.336 27.7599H126.586C126.52 27.9839 126.343 28.1986 126.054 28.4039C125.764 28.5999 125.419 28.6979 125.018 28.6979C124.458 28.6979 124.028 28.5532 123.73 28.2639C123.431 27.9746 123.268 27.5079 123.24 26.8639ZM129.641 22.7619V29.9999H131.629V26.7379C131.629 26.4112 131.661 26.1079 131.727 25.8279C131.792 25.5479 131.899 25.3052 132.049 25.0999C132.207 24.8852 132.413 24.7172 132.665 24.5959C132.917 24.4746 133.225 24.4139 133.589 24.4139C133.71 24.4139 133.836 24.4232 133.967 24.4419C134.097 24.4512 134.209 24.4652 134.303 24.4839V22.6359C134.144 22.5892 133.999 22.5659 133.869 22.5659C133.617 22.5659 133.374 22.6032 133.141 22.6779C132.907 22.7526 132.688 22.8599 132.483 22.9999C132.277 23.1306 132.095 23.2939 131.937 23.4899C131.778 23.6766 131.652 23.8819 131.559 24.1059H131.531V22.7619H129.641Z" fill="#16428D"/>
<path d="M74.323 4V33" stroke="#DFE2EE"/>
<path fill-rule="evenodd" clip-rule="evenodd" d="M39.8982 23.8478V24.1897H39.5807V24.6104H39.8982V25.3618C39.8982 25.6211 39.9666 25.7976 40.1033 25.9066C40.2255 26.0006 40.4258 26.0644 40.6651 26.0644C40.8703 26.0644 41.0511 26.0419 41.1439 26.0156L41.139 25.5835C41.0706 25.5948 41.0217 25.5985 40.9191 25.5985C40.6993 25.5985 40.626 25.4971 40.626 25.2754V24.6104H41.1585V24.1897H40.626V23.6937L39.8982 23.8478V23.8478ZM37.5386 25.9366C37.7194 26.0118 37.9979 26.0682 38.3105 26.0682C38.9944 26.0682 39.3412 25.8165 39.3412 25.4708C39.3364 25.2041 39.1507 25.0237 38.6964 24.9035C38.4033 24.8246 38.3105 24.7795 38.3105 24.6894C38.3105 24.5992 38.4131 24.5428 38.5938 24.5428C38.7941 24.5428 39.0041 24.603 39.1117 24.648L39.2386 24.2535C39.0921 24.1972 38.8478 24.1446 38.5694 24.1446C37.9783 24.1446 37.5973 24.4038 37.5973 24.7494C37.5924 24.9673 37.7829 25.174 38.2812 25.3018C38.5547 25.3731 38.628 25.4182 38.628 25.5159C38.628 25.6098 38.5352 25.6661 38.3105 25.6661C38.0907 25.6661 37.8073 25.5948 37.6706 25.5309L37.5386 25.9366V25.9366ZM35.6628 24.8997C35.6823 24.7494 35.8093 24.5278 36.122 24.5278C36.4639 24.5278 36.5421 24.7608 36.5421 24.8997H35.6628ZM37.2065 25.2905C37.2162 25.2491 37.2309 25.1627 37.2309 25.065C37.2309 24.6104 36.9378 24.1484 36.1659 24.1484C35.3355 24.1484 34.9593 24.6631 34.9593 25.1289C34.9593 25.7037 35.4234 26.0644 36.2343 26.0644C36.5568 26.0644 36.8547 26.0268 37.099 25.9479L37.0013 25.561C36.801 25.6135 36.5958 25.6398 36.3418 25.6398C35.9949 25.6398 35.6872 25.5271 35.6677 25.2905H37.2065V25.2905ZM32.3263 24.1897L33.1958 26.0268H33.9383L34.8274 24.1897H34.0458L33.7381 25.0425C33.6843 25.2003 33.6452 25.3393 33.6062 25.4896H33.5915C33.5525 25.3431 33.5133 25.2003 33.4547 25.0425L33.1323 24.1897H32.3263ZM29.8105 26.0268H30.553V24.9673C30.553 24.9147 30.5579 24.8622 30.5774 24.8246C30.6312 24.7194 30.7533 24.6104 30.9585 24.6104C31.2271 24.6104 31.3346 24.772 31.3346 25.0087V26.0268H32.0771V24.9411C32.0771 24.4001 31.7108 24.1484 31.2223 24.1484C30.8217 24.1484 30.5823 24.3249 30.4846 24.4452H30.4699L30.4357 24.1897H29.7909C29.8007 24.355 29.8105 24.5466 29.8105 24.7758V26.0268V26.0268ZM28.4329 23.4946V26.0268H29.1754V23.4946H28.4329ZM26.7036 24.5541C27.0406 24.5541 27.1775 24.8321 27.1775 25.1026C27.1775 25.437 26.9967 25.6586 26.7036 25.6586C26.3861 25.6586 26.2151 25.422 26.2151 25.1064C26.2151 24.8359 26.3519 24.5541 26.7036 24.5541ZM26.7281 24.1446C25.9562 24.1446 25.4481 24.524 25.4481 25.1214C25.4481 25.715 25.9855 26.0682 26.6841 26.0682C27.324 26.0682 27.9444 25.7601 27.9444 25.0876C27.9444 24.5316 27.4559 24.1446 26.7281 24.1446V24.1446ZM23.7677 26.0268H24.5102V25.0951C24.5102 25.05 24.5151 25.0049 24.5248 24.9673C24.5738 24.7908 24.7593 24.6781 25.0329 24.6781C25.116 24.6781 25.1746 24.6856 25.2332 24.6931V24.1559C25.1795 24.1484 25.1453 24.1446 25.0769 24.1446C24.8424 24.1446 24.5542 24.2573 24.432 24.5278H24.4125L24.3832 24.1897H23.7481C23.7628 24.3475 23.7677 24.524 23.7677 24.7946V26.0268ZM21.7355 23.9305C21.7892 23.9192 21.8918 23.9116 22.0384 23.9116C22.4145 23.9116 22.6246 24.0507 22.6246 24.2836C22.6246 24.5391 22.3803 24.6931 21.9847 24.6931C21.8723 24.6931 21.799 24.6894 21.7355 24.6781V23.9305ZM20.9978 26.0268H21.7355V25.1176C21.8039 25.1289 21.8918 25.1326 21.9895 25.1326C22.4292 25.1326 22.8053 25.0462 23.0593 24.8659C23.2597 24.7269 23.3622 24.5128 23.3622 24.2648C23.3622 24.0169 23.2254 23.8065 23.0105 23.6787C22.7907 23.5435 22.4634 23.4758 22.0042 23.4758C21.5499 23.4758 21.2274 23.4984 20.9978 23.5284V26.0268ZM19.1171 26.0268H19.8597V25.0951C19.8597 25.05 19.8646 25.0049 19.8743 24.9673C19.9232 24.7908 20.1087 24.6781 20.3823 24.6781C20.4654 24.6781 20.524 24.6856 20.5827 24.6931V24.1559C20.5289 24.1484 20.4947 24.1446 20.4264 24.1446C20.1918 24.1446 19.9036 24.2573 19.7815 24.5278H19.7619L19.7326 24.1897H19.0975C19.1122 24.3475 19.1171 24.524 19.1171 24.7946V26.0268ZM17.1045 24.8997C17.124 24.7494 17.251 24.5278 17.5637 24.5278C17.9056 24.5278 17.9838 24.7608 17.9838 24.8997H17.1045ZM18.6481 25.2905C18.6579 25.2491 18.6725 25.1627 18.6725 25.065C18.6725 24.6104 18.3794 24.1484 17.6076 24.1484C16.7772 24.1484 16.401 24.6631 16.401 25.1289C16.401 25.7037 16.8651 26.0644 17.6761 26.0644C17.9984 26.0644 18.2964 26.0268 18.5406 25.9479L18.4429 25.561C18.2427 25.6135 18.0375 25.6398 17.7835 25.6398C17.4367 25.6398 17.1289 25.5271 17.1094 25.2905H18.6481V25.2905ZM14.872 23.8478V24.1897H14.5545V24.6104H14.872V25.3618C14.872 25.6211 14.9404 25.7976 15.0771 25.9066C15.1993 26.0006 15.3996 26.0644 15.6389 26.0644C15.8441 26.0644 16.0249 26.0419 16.1177 26.0156L16.1128 25.5835C16.0444 25.5948 15.9955 25.5985 15.893 25.5985C15.6731 25.5985 15.5999 25.4971 15.5999 25.2754V24.6104H16.1324V24.1897H15.5999V23.6937L14.872 23.8478V23.8478ZM11.9361 26.0268H12.6786V24.9673C12.6786 24.9147 12.6835 24.8622 12.703 24.8246C12.7567 24.7194 12.8789 24.6104 13.0841 24.6104C13.3528 24.6104 13.4602 24.772 13.4602 25.0087V26.0268H14.2027V24.9411C14.2027 24.4001 13.8364 24.1484 13.3478 24.1484C12.9473 24.1484 12.7079 24.3249 12.6102 24.4452H12.5956L12.5614 24.1897H11.9165C11.9263 24.355 11.9361 24.5466 11.9361 24.7758V26.0268V26.0268ZM10.5585 23.4946V26.0268H11.301V23.4946H10.5585Z" fill="#16428D"/>
<path fill-rule="evenodd" clip-rule="evenodd" d="M25.0863 15.1772C25.5655 15.2415 26.0765 15.2843 26.8427 15.2843C29.6209 15.2843 31.4415 14.0831 31.4415 12.6461C31.4415 11.2521 29.9404 10.8017 28.1522 10.8017C27.29 10.8017 26.6829 10.8446 26.2998 10.9088L25.0863 15.1772V15.1772ZM22.4041 8.72101C23.7767 8.48482 25.9486 8.33491 28.0243 8.33491C29.9404 8.33491 32.1759 8.5497 33.7407 9.29998C35.1776 9.96515 36.0716 10.9731 36.0716 12.3677C36.0716 14.1907 34.8263 15.5634 33.1336 16.4428C31.3772 17.365 28.8865 17.7725 26.268 17.7725C25.5012 17.7725 24.863 17.7297 24.3837 17.6869L22.9151 22.8989H18.4117L22.4041 8.72101V8.72101ZM43.9155 8.33627C43.7576 8.92559 43.5985 9.51434 43.4412 10.1042C42.336 14.2332 41.2302 18.3627 40.1287 22.4928C40.0932 22.6262 40.0454 22.6727 39.901 22.6721C38.3155 22.666 36.7298 22.6666 35.1442 22.6709C35.017 22.6709 34.9949 22.647 35.0292 22.5209C36.0934 18.5548 37.1533 14.5881 38.2175 10.6219C38.2549 10.4849 38.2286 10.4567 38.0914 10.4623C37.8124 10.472 37.5327 10.4598 37.2531 10.4671C37.1441 10.4702 37.1374 10.4323 37.1619 10.3435C37.3357 9.70831 37.5058 9.07186 37.6784 8.43606C37.6937 8.37911 37.698 8.32224 37.7916 8.32224C39.8209 8.32587 41.8495 8.32588 43.8788 8.32649C43.8879 8.32649 43.8971 8.33136 43.9155 8.33627V8.33627ZM20.061 8.33298C19.8541 9.10593 19.6497 9.87207 19.4447 10.6376C18.386 14.5909 17.3267 18.5436 16.2729 22.4975C16.2362 22.6358 16.1799 22.6718 16.0416 22.6713C14.4652 22.6664 12.8894 22.6682 11.3135 22.6682H11.1367C12.226 18.5956 13.3116 14.5377 14.4003 10.4645C14.0606 10.4645 13.7344 10.4614 13.4077 10.467C13.303 10.4688 13.2774 10.448 13.3073 10.339C13.483 9.70441 13.6525 9.068 13.8226 8.4315C13.8416 8.35871 13.8655 8.32202 13.9554 8.32202C15.9651 8.32566 17.9747 8.32509 19.9845 8.32509C20.0071 8.32509 20.0303 8.32996 20.061 8.33298V8.33298Z" fill="#16428D"/>
<path fill-rule="evenodd" clip-rule="evenodd" d="M8.56362 12.3733H8.74294C10.0586 12.3733 11.3743 12.3757 12.6901 12.3703C12.8211 12.3696 12.8388 12.399 12.8051 12.5177C12.7311 12.7772 12.736 12.7784 12.4594 12.7784C11.1675 12.7784 9.87629 12.7803 8.58444 12.7753C8.45957 12.7747 8.40573 12.8053 8.36412 12.9296C7.90147 14.3236 7.63467 15.7507 7.61569 17.2213C7.612 17.4629 7.61017 17.4629 7.85868 17.4629C9.00544 17.4629 10.1529 17.4648 11.2997 17.4605C11.4307 17.4605 11.4766 17.4758 11.4307 17.6221C11.3548 17.865 11.3646 17.868 11.1168 17.868C9.9938 17.868 8.8708 17.8693 7.74788 17.8656C7.6359 17.865 7.60894 17.8919 7.61323 18.0033C7.66651 19.5363 7.96452 21.0197 8.48711 22.4608C8.51776 22.5453 8.563 22.5539 8.63644 22.5539C9.07033 22.5514 9.50423 22.5526 9.93812 22.5526H10.0856C10.0819 22.6604 10.0348 22.7466 10.0158 22.8396C9.99989 22.9167 9.94114 22.8996 9.89098 22.8996C9.49138 22.9002 9.09173 22.8996 8.67989 22.8996C8.74842 23.1199 8.84208 23.3188 8.93323 23.5183C9.08805 23.8604 9.25514 24.1964 9.44486 24.5201C9.50607 24.6248 9.52317 24.7184 9.4816 24.8322C9.4424 24.9387 9.41794 25.0506 9.38181 25.181C9.15232 24.8108 8.95774 24.4466 8.77228 24.0782C8.59913 23.7343 8.44002 23.3843 8.30357 23.0245C8.26806 22.9296 8.22399 22.8966 8.11995 22.8971C7.06429 22.9014 6.00868 22.8953 4.95364 22.9039C4.79273 22.9057 4.69052 22.8623 4.62199 22.7222C4.59748 22.6713 4.5614 22.6261 4.51427 22.5526H4.685C5.7792 22.5526 6.87335 22.5514 7.96697 22.5545C8.07589 22.5551 8.10956 22.5453 8.06672 22.4235C7.55452 20.9799 7.26813 19.4928 7.22648 17.9605C7.22341 17.8466 7.16036 17.868 7.09674 17.868C5.83365 17.868 4.57118 17.865 3.3087 17.8718C3.15876 17.873 3.1239 17.8246 3.14714 17.6943C3.15327 17.6612 3.1563 17.6269 3.15512 17.5933C3.15205 17.4905 3.19366 17.4593 3.30077 17.4605C4.05284 17.4654 4.8043 17.4629 5.55646 17.4629C6.0723 17.4629 6.58757 17.4611 7.10345 17.4648C7.19285 17.4654 7.22586 17.4483 7.22586 17.3485C7.23016 15.8345 7.48477 14.3616 7.95838 12.9246C7.99696 12.8078 7.98162 12.7803 7.85622 12.7808C6.87335 12.7851 5.88995 12.7833 4.90655 12.7833H4.71438C4.79882 12.6444 4.86919 12.5238 4.94509 12.4057C4.9806 12.35 5.04242 12.3745 5.09254 12.3745C6.0613 12.3733 7.03005 12.3714 7.99881 12.3764C8.10833 12.377 8.15362 12.3439 8.19278 12.2423C8.80779 10.6384 9.6725 9.17821 10.7514 7.84353C10.7838 7.80319 10.8132 7.76092 10.8609 7.69665H10.2588C10.5244 7.5064 10.7679 7.27872 11.1253 7.34115C11.1737 7.3497 11.2177 7.34238 11.2507 7.29279C11.4545 6.9807 11.7667 6.81295 12.0916 6.66063C12.2464 6.58776 12.3976 6.50884 12.5585 6.44579C12.2838 6.73648 11.9949 7.00881 11.7434 7.31726C11.7764 7.3601 11.818 7.34049 11.853 7.34049C13.4722 7.34176 15.0914 7.34049 16.7107 7.34479C16.8147 7.34479 16.8612 7.30441 16.9083 7.22238C17.5369 6.13186 18.2895 5.13505 19.1647 4.23048C19.2166 4.17607 19.2711 4.14178 19.347 4.12709C19.5239 4.09224 19.6989 4.04752 19.8837 4.02002C18.8782 5.01079 18.0172 6.10801 17.2853 7.34177H17.4267C18.9694 7.34177 20.5116 7.34049 22.0537 7.34479C22.1651 7.34479 22.2085 7.31055 22.2416 7.20589C22.5531 6.22552 22.8841 5.25128 23.3407 4.32659C23.4747 4.05488 23.6265 3.79172 23.7562 3.51822C23.8125 3.4001 23.8927 3.35788 24.0126 3.35603C24.0989 3.35481 24.1852 3.34744 24.2892 3.34253C24.1534 3.58982 24.0218 3.82171 23.897 4.05795C23.3639 5.0695 22.9613 6.13493 22.6192 7.22426C22.588 7.32396 22.6124 7.35457 22.7116 7.34238C22.7495 7.33747 22.7887 7.34177 22.8272 7.34177C30.0037 7.34177 37.1802 7.34238 44.3561 7.33931C44.5262 7.3387 44.6761 7.36316 44.8181 7.46168C44.9277 7.53753 45.0488 7.59756 45.1657 7.68871H45.0047C33.8523 7.68871 22.7 7.68932 11.547 7.68625C11.4301 7.68625 11.3548 7.71932 11.2801 7.8099C10.1816 9.14581 9.27044 10.5943 8.62483 12.2037C8.60523 12.2515 8.58935 12.3011 8.56362 12.3733V12.3733Z" fill="#16428D"/>
<path fill-rule="evenodd" clip-rule="evenodd" d="M47.3745 22.9043H47.2185C45.4009 22.9043 43.5841 22.9043 41.7671 22.9043C41.5835 22.9043 41.5958 22.9068 41.63 22.7305C41.6594 22.5824 41.7267 22.5481 41.8723 22.5488C43.704 22.5549 45.5356 22.5512 47.3666 22.5561C47.5018 22.5561 47.5636 22.5212 47.6101 22.3896C48.1125 20.973 48.4008 19.5165 48.4601 18.0147C48.4657 17.8794 48.4173 17.8703 48.3078 17.8709C46.5826 17.8733 44.8569 17.8727 43.1318 17.8727C42.95 17.8727 42.95 17.8727 42.9953 17.6965C43.0565 17.4627 43.0565 17.4627 43.3025 17.4627C44.9701 17.4627 46.6377 17.4615 48.3053 17.4658C48.4277 17.4664 48.4663 17.4444 48.4644 17.3116C48.4412 15.8043 48.208 14.3326 47.7405 12.8982C47.7099 12.8045 47.6701 12.7758 47.571 12.7758C46.5447 12.78 45.5178 12.7788 44.4916 12.7788H44.3355C44.3324 12.7593 44.3282 12.7494 44.33 12.7409C44.4108 12.3737 44.4108 12.3737 44.7914 12.3737C45.6641 12.3737 46.5361 12.3718 47.4088 12.3755C47.5177 12.3761 47.5532 12.3676 47.5 12.2476C46.9553 11.0273 46.3274 9.85489 45.5447 8.76863C45.4633 8.65603 45.4303 8.55628 45.4842 8.42654C45.5154 8.35187 45.5313 8.2705 45.5539 8.19337C45.6102 8.18114 45.6206 8.22889 45.6408 8.25581C46.5734 9.48093 47.3317 10.804 47.8788 12.2452C47.9185 12.3492 47.9687 12.3768 48.0758 12.3761C49.0831 12.3718 50.0904 12.3761 51.0977 12.37C51.2231 12.3694 51.2929 12.4067 51.3401 12.5181C51.3749 12.6007 51.4245 12.6772 51.4771 12.7733H48.0832C48.0856 12.8902 48.1333 12.9808 48.1627 13.0756C48.5831 14.4207 48.828 15.7939 48.842 17.2058C48.8444 17.4627 48.8463 17.4627 49.1051 17.4627C50.2813 17.4627 51.4569 17.464 52.6331 17.4609C52.7304 17.4603 52.7696 17.4787 52.7873 17.5857C52.8332 17.869 52.8412 17.8685 52.5523 17.8685C51.3621 17.8685 50.1718 17.869 48.9815 17.866C48.8756 17.8654 48.842 17.8911 48.8396 18.0007C48.8028 19.4944 48.5207 20.943 48.033 22.3541C48.0116 22.4166 47.9914 22.4802 47.9669 22.5536H51.2984C51.2176 22.6669 51.1485 22.7623 51.0812 22.859C51.039 22.9202 50.9772 22.8988 50.9227 22.8988C49.9393 22.9 48.9564 22.9025 47.973 22.8964C47.8506 22.8957 47.8023 22.9367 47.7582 23.0469C47.1132 24.6723 46.1983 26.1349 45.0833 27.4775C45.0447 27.5246 45.0068 27.5724 44.9542 27.6378H45.8165C45.516 27.8391 45.2669 28.0478 44.9132 27.9891C44.6935 27.9524 44.5436 28.0381 44.3961 28.207C43.9983 28.6629 43.4696 28.9823 42.8386 29.1818C43.062 28.9732 43.2639 28.7889 43.4592 28.5986C43.6544 28.4083 43.8429 28.2113 44.0357 28.0154C43.994 27.9775 43.9488 27.9952 43.9089 27.9946C42.3375 27.994 40.7665 27.9946 39.195 27.9922C39.0977 27.9915 39.0408 28.0185 38.9888 28.106C38.3064 29.2497 37.4742 30.276 36.5195 31.2037C36.4736 31.2484 36.4271 31.2802 36.3604 31.2931C36.1536 31.3328 35.9485 31.3812 35.7062 31.4339C35.8996 31.2551 36.0679 31.1046 36.2301 30.9479C37.1095 30.0955 37.8725 29.1494 38.5274 28.1146C38.5469 28.0839 38.5886 28.0533 38.5684 28.0142C38.5475 27.9726 38.4992 27.9952 38.4637 27.9952C36.9454 27.994 35.4272 27.9958 33.9089 27.9909C33.7969 27.9903 33.7736 28.0466 33.7473 28.1286C33.4316 29.1145 33.0577 30.0771 32.5865 31.0006C32.4335 31.3004 32.2713 31.5954 32.0944 31.8824C32.0399 31.9699 31.7431 32.069 31.6587 32.0189C31.6005 31.984 31.6293 31.9209 31.6514 31.8781C31.693 31.7967 31.7462 31.7221 31.794 31.6438C32.4689 30.5361 32.9554 29.3458 33.3538 28.1164C33.3838 28.0258 33.3746 27.9781 33.2645 27.9934C33.2272 27.9983 33.188 27.994 33.1494 27.994C25.905 27.994 18.6619 27.9934 11.4175 27.997C11.2327 27.997 11.0692 27.9701 10.9163 27.8624C10.8104 27.7878 10.6923 27.7315 10.5791 27.6421H10.7376H43.7034C43.9108 27.6421 44.1183 27.6403 44.3257 27.6433C44.3918 27.6446 44.4407 27.6293 44.4873 27.5748C45.6653 26.2163 46.6414 24.7298 47.3304 23.0628C47.3495 23.0157 47.3825 22.9704 47.3745 22.9043V22.9043Z" fill="#16428D"/>
<path fill-rule="evenodd" clip-rule="evenodd" d="M9.78489 27.9891C8.68824 27.9891 7.63259 27.9891 6.5782 27.9897C6.52063 27.9903 6.47845 27.9702 6.43496 27.9346C4.97913 26.7407 3.70745 25.3834 2.72589 23.7678C1.91932 22.4417 1.36428 21.0189 1.12927 19.481C0.781715 17.2052 1.14089 15.0339 2.13534 12.9636C2.76259 11.6589 3.59736 10.4975 4.58137 9.44057C6.16023 7.74604 8.01264 6.41017 10.0291 5.29208C12.4586 3.94455 15.0386 2.9807 17.7233 2.2837C19.2752 1.88037 20.8473 1.57806 22.436 1.36387C23.6244 1.20415 24.8165 1.08668 26.0147 1.03341C26.2558 1.02307 26.4964 1.01934 26.7363 1.00097C26.8262 0.994218 26.8293 1.02241 26.8201 1.09462C26.7326 1.80145 26.6487 2.50889 26.5625 3.21567C26.47 3.97515 26.3721 4.73455 26.2858 5.4946C26.2718 5.61517 26.2381 5.64758 26.12 5.63232C25.571 5.56072 25.0215 5.4946 24.472 5.43098C24.39 5.42182 24.3655 5.39424 24.3759 5.31352C24.4585 4.6544 24.5399 3.99536 24.6188 3.33563C24.6629 2.96843 24.6715 3.04068 24.3722 3.06879C21.5621 3.33563 18.804 3.8662 16.1169 4.74437C13.6855 5.53928 11.3741 6.58884 9.24205 8.01161C7.71462 9.03118 6.33157 10.2147 5.19638 11.6688C4.22456 12.9129 3.49756 14.28 3.14325 15.8288C2.66468 17.9187 2.93823 19.921 3.85986 21.8438C4.6438 23.4765 5.78811 24.8295 7.13569 26.0223C7.9349 26.7291 8.79408 27.3557 9.69549 27.9261C9.71452 27.9383 9.73285 27.9524 9.78489 27.9891V27.9891Z" fill="#16428D" stroke="#16428D" stroke-width="0.0762" stroke-miterlimit="22.9256"/>
<path fill-rule="evenodd" clip-rule="evenodd" d="M46.2504 7.34167H46.3765C47.374 7.34167 48.3714 7.34229 49.369 7.34106C49.4424 7.34106 49.5073 7.34777 49.5696 7.39859C50.9313 8.52032 52.1369 9.78402 53.0922 11.2748C53.9966 12.6854 54.619 14.2079 54.8723 15.8694C55.1911 17.9598 54.9085 19.9743 54.0737 21.9137C53.4581 23.3439 52.5915 24.6106 51.5469 25.7581C49.9846 27.4752 48.1383 28.8282 46.1237 29.9622C43.7285 31.311 41.1827 32.2834 38.5317 32.9908C37.0287 33.3917 35.5068 33.6983 33.9671 33.9198C32.5229 34.1279 31.0719 34.2705 29.613 34.3274C29.4979 34.3317 29.3829 34.3378 29.2678 34.3475C29.1876 34.3543 29.1681 34.3206 29.1779 34.2466C29.2403 33.7552 29.3009 33.2625 29.3609 32.7712C29.463 31.9303 29.5646 31.0895 29.6662 30.2486C29.6858 30.0907 29.7072 29.9335 29.7232 29.7756C29.7292 29.7095 29.758 29.6991 29.818 29.7064C30.3859 29.7786 30.9538 29.8509 31.5229 29.9157C31.6263 29.9273 31.6312 29.9665 31.6202 30.0534C31.5284 30.7743 31.4434 31.4958 31.3522 32.2161C31.3387 32.3232 31.4029 32.2981 31.4562 32.2926C31.8344 32.2552 32.2132 32.221 32.5907 32.1757C33.5748 32.057 34.5552 31.9095 35.5282 31.7192C39.1235 31.0161 42.5541 29.8619 45.7198 27.9862C47.3152 27.0407 48.7827 25.9306 50.0446 24.5647C51.2354 23.2759 52.1675 21.8299 52.6889 20.1396C52.9906 19.1598 53.1289 18.1569 53.0799 17.1331C52.9985 15.411 52.444 13.8383 51.5286 12.3861C50.5494 10.8341 49.2716 9.56308 47.8207 8.45608C47.3342 8.08463 46.8305 7.73825 46.314 7.41025C46.292 7.39617 46.2602 7.39003 46.2504 7.34167V7.34167Z" fill="#16428D"/>
</svg>
