<svg width="191" height="34" viewBox="0 0 191 34" fill="none" xmlns="http://www.w3.org/2000/svg">
<g clip-path="url(#clip0)">
<path fill-rule="evenodd" clip-rule="evenodd" d="M107.658 23.2938V23.6423H107.334V24.0713H107.658V24.8374C107.658 25.1017 107.728 25.2817 107.867 25.3928C107.992 25.4886 108.196 25.5537 108.44 25.5537C108.649 25.5537 108.833 25.5307 108.928 25.5039L108.923 25.0634C108.853 25.0749 108.804 25.0787 108.699 25.0787C108.475 25.0787 108.4 24.9753 108.4 24.7493V24.0713H108.943V23.6423H108.4V23.1367L107.658 23.2938V23.2938ZM105.252 25.4234C105.437 25.5 105.721 25.5575 106.039 25.5575C106.737 25.5575 107.09 25.3009 107.09 24.9485C107.085 24.6765 106.896 24.4927 106.433 24.3701C106.134 24.2897 106.039 24.2437 106.039 24.1518C106.039 24.0598 106.144 24.0024 106.328 24.0024C106.532 24.0024 106.747 24.0637 106.856 24.1096L106.986 23.7075C106.836 23.65 106.587 23.5964 106.303 23.5964C105.701 23.5964 105.312 23.8607 105.312 24.213C105.307 24.4352 105.502 24.6459 106.009 24.7761C106.288 24.8489 106.363 24.8949 106.363 24.9945C106.363 25.0902 106.268 25.1477 106.039 25.1477C105.815 25.1477 105.526 25.0749 105.387 25.0098L105.252 25.4234V25.4234ZM103.34 24.3663C103.36 24.213 103.489 23.9871 103.808 23.9871C104.157 23.9871 104.236 24.2246 104.236 24.3663H103.34ZM104.914 24.7647C104.924 24.7225 104.939 24.6344 104.939 24.5348C104.939 24.0713 104.64 23.6002 103.853 23.6002C103.006 23.6002 102.623 24.125 102.623 24.5999C102.623 25.186 103.096 25.5537 103.923 25.5537C104.251 25.5537 104.555 25.5154 104.804 25.435L104.705 25.0404C104.5 25.094 104.291 25.1208 104.032 25.1208C103.679 25.1208 103.365 25.0059 103.345 24.7647H104.914V24.7647ZM99.9383 23.6423L100.825 25.5154H101.582L102.488 23.6423H101.691L101.378 24.5119C101.323 24.6727 101.283 24.8145 101.243 24.9676H101.228C101.188 24.8183 101.148 24.6727 101.089 24.5119L100.76 23.6423H99.9383ZM97.3733 25.5154H98.1304V24.4352C98.1304 24.3816 98.1354 24.328 98.1552 24.2897C98.21 24.1824 98.3345 24.0713 98.5437 24.0713C98.8176 24.0713 98.9272 24.2361 98.9272 24.4774V25.5154H99.6842V24.4084C99.6842 23.8569 99.3107 23.6002 98.8127 23.6002C98.4042 23.6002 98.1602 23.7802 98.0606 23.9028H98.0456L98.0108 23.6423H97.3534C97.3633 23.8109 97.3733 24.0062 97.3733 24.2399V25.5154V25.5154ZM95.9688 22.9337V25.5154H96.7258V22.9337H95.9688ZM94.2057 24.0139C94.5494 24.0139 94.6889 24.2973 94.6889 24.5731C94.6889 24.914 94.5046 25.14 94.2057 25.14C93.8821 25.14 93.7077 24.8987 93.7077 24.5769C93.7077 24.3011 93.8471 24.0139 94.2057 24.0139ZM94.2307 23.5964C93.4437 23.5964 92.9257 23.9832 92.9257 24.5923C92.9257 25.1975 93.4736 25.5575 94.1858 25.5575C94.8383 25.5575 95.4708 25.2434 95.4708 24.5578C95.4708 23.9909 94.9728 23.5964 94.2307 23.5964V23.5964ZM91.2125 25.5154H91.9695V24.5654C91.9695 24.5195 91.9745 24.4735 91.9844 24.4352C92.0343 24.2552 92.2235 24.1403 92.5024 24.1403C92.5871 24.1403 92.6469 24.1479 92.7066 24.1556V23.6079C92.6518 23.6002 92.617 23.5964 92.5473 23.5964C92.3082 23.5964 92.0143 23.7113 91.8898 23.9871H91.8699L91.84 23.6423H91.1925C91.2075 23.8032 91.2125 23.9832 91.2125 24.259V25.5154ZM89.1406 23.3781C89.1953 23.3666 89.3 23.3589 89.4494 23.3589C89.8329 23.3589 90.047 23.5006 90.047 23.7381C90.047 23.9986 89.798 24.1556 89.3946 24.1556C89.28 24.1556 89.2053 24.1518 89.1406 24.1403V23.3781ZM88.3885 25.5154H89.1406V24.5884C89.2103 24.5999 89.3 24.6037 89.3996 24.6037C89.8478 24.6037 90.2313 24.5156 90.4903 24.3318C90.6945 24.1901 90.7991 23.9718 90.7991 23.719C90.7991 23.4662 90.6596 23.2516 90.4405 23.1214C90.2164 22.9835 89.8827 22.9146 89.4145 22.9146C88.9513 22.9146 88.6226 22.9376 88.3885 22.9682V25.5154ZM86.4711 25.5154H87.2281V24.5654C87.2281 24.5195 87.2331 24.4735 87.243 24.4352C87.2928 24.2552 87.482 24.1403 87.761 24.1403C87.8456 24.1403 87.9055 24.1479 87.9652 24.1556V23.6079C87.9104 23.6002 87.8756 23.5964 87.8059 23.5964C87.5668 23.5964 87.2729 23.7113 87.1484 23.9871H87.1285L87.0986 23.6423H86.4511C86.4661 23.8032 86.4711 23.9832 86.4711 24.259V25.5154ZM84.4191 24.3663C84.4389 24.213 84.5684 23.9871 84.8873 23.9871C85.2359 23.9871 85.3155 24.2246 85.3155 24.3663H84.4191ZM85.9929 24.7647C86.0028 24.7225 86.0178 24.6344 86.0178 24.5348C86.0178 24.0713 85.7189 23.6002 84.9321 23.6002C84.0854 23.6002 83.7019 24.125 83.7019 24.5999C83.7019 25.186 84.175 25.5537 85.0018 25.5537C85.3305 25.5537 85.6343 25.5154 85.8833 25.435L85.7837 25.0404C85.5796 25.094 85.3703 25.1208 85.1113 25.1208C84.7578 25.1208 84.444 25.0059 84.4241 24.7647H85.9929V24.7647ZM82.143 23.2938V23.6423H81.8193V24.0713H82.143V24.8374C82.143 25.1017 82.2127 25.2817 82.3521 25.3928C82.4767 25.4886 82.6809 25.5537 82.9249 25.5537C83.1341 25.5537 83.3184 25.5307 83.413 25.5039L83.408 25.0634C83.3383 25.0749 83.2885 25.0787 83.1839 25.0787C82.9598 25.0787 82.8851 24.9753 82.8851 24.7493V24.0713H83.428V23.6423H82.8851V23.1367L82.143 23.2938V23.2938ZM79.1497 25.5154H79.9068V24.4352C79.9068 24.3816 79.9118 24.328 79.9316 24.2897C79.9864 24.1824 80.1109 24.0713 80.3201 24.0713C80.5941 24.0713 80.7036 24.2361 80.7036 24.4774V25.5154H81.4607V24.4084C81.4607 23.8569 81.0871 23.6002 80.5891 23.6002C80.1807 23.6002 79.9366 23.7802 79.837 23.9028H79.8221L79.7872 23.6423H79.1298C79.1398 23.8109 79.1497 24.0062 79.1497 24.2399V25.5154V25.5154ZM77.7452 22.9337V25.5154H78.5022V22.9337H77.7452Z" fill="white"/>
<path fill-rule="evenodd" clip-rule="evenodd" d="M92.5568 14.454C93.0453 14.5195 93.5663 14.5632 94.3475 14.5632C97.18 14.5632 99.0362 13.3384 99.0362 11.8734C99.0362 10.4522 97.5057 9.99298 95.6827 9.99298C94.8036 9.99298 94.1847 10.0367 93.7941 10.1022L92.5568 14.454V14.454ZM89.8222 7.87163C91.2217 7.63082 93.4359 7.47798 95.5523 7.47798C97.5057 7.47798 99.7849 7.69697 101.38 8.46191C102.845 9.14007 103.757 10.1677 103.757 11.5896C103.757 13.4482 102.487 14.8477 100.761 15.7443C98.9707 16.6844 96.4313 17.1 93.7616 17.1C92.9799 17.1 92.3291 17.0563 91.8406 17.0126L90.3432 22.3265H85.7518L89.8222 7.87163V7.87163ZM111.754 7.47937C111.593 8.0802 111.431 8.68045 111.27 9.28186C110.144 13.4915 109.016 17.7016 107.893 21.9125C107.857 22.0484 107.808 22.0959 107.661 22.0953C106.044 22.089 104.428 22.0896 102.811 22.094C102.681 22.094 102.659 22.0696 102.694 21.9411C103.779 17.8976 104.86 13.8533 105.945 9.8097C105.983 9.66996 105.956 9.64127 105.816 9.6469C105.532 9.65687 105.246 9.6444 104.961 9.65187C104.85 9.655 104.843 9.61632 104.868 9.52585C105.046 8.87821 105.219 8.22933 105.395 7.58111C105.411 7.52304 105.415 7.46506 105.51 7.46506C107.579 7.46877 109.648 7.46878 111.716 7.4694C111.726 7.4694 111.735 7.47437 111.754 7.47937V7.47937ZM87.4333 7.47602C87.2224 8.26406 87.014 9.04517 86.805 9.8257C85.7257 13.8562 84.6457 17.8861 83.5713 21.9172C83.5338 22.0582 83.4764 22.095 83.3354 22.0944C81.7282 22.0894 80.1216 22.0913 78.515 22.0913H78.3347C79.4453 17.9391 80.5521 13.8019 81.6621 9.64913C81.3158 9.64913 80.9832 9.64605 80.6501 9.65168C80.5434 9.65352 80.5172 9.63233 80.5477 9.52124C80.7268 8.87424 80.8996 8.22539 81.0731 7.57646C81.0924 7.50225 81.1168 7.46484 81.2085 7.46484C83.2574 7.46855 85.3064 7.46797 87.3553 7.46797C87.3784 7.46797 87.4021 7.47293 87.4333 7.47602V7.47602Z" fill="white"/>
<path fill-rule="evenodd" clip-rule="evenodd" d="M75.7114 11.5954H75.8942C77.2356 11.5954 78.577 11.5979 79.9184 11.5923C80.052 11.5916 80.07 11.6216 80.0357 11.7426C79.9602 12.0071 79.9653 12.0084 79.6832 12.0084C78.3661 12.0084 77.0497 12.0103 75.7326 12.0053C75.6053 12.0046 75.5504 12.0358 75.508 12.1625C75.0363 13.5838 74.7643 15.0388 74.7449 16.538C74.7412 16.7844 74.7393 16.7844 74.9927 16.7844C76.1618 16.7844 77.3317 16.7863 78.5009 16.782C78.6344 16.782 78.6812 16.7975 78.6344 16.9467C78.5571 17.1944 78.567 17.1974 78.3144 17.1974C77.1695 17.1974 76.0245 17.1987 74.8797 17.195C74.7655 17.1944 74.738 17.2218 74.7424 17.3353C74.7967 18.8983 75.1006 20.4106 75.6334 21.8799C75.6646 21.9661 75.7107 21.9748 75.7856 21.9748C76.228 21.9723 76.6703 21.9736 77.1127 21.9736H77.263C77.2593 22.0834 77.2113 22.1713 77.1919 22.2661C77.1757 22.3448 77.1158 22.3273 77.0647 22.3273C76.6573 22.3279 76.2498 22.3273 75.8299 22.3273C75.8998 22.5519 75.9953 22.7547 76.0882 22.9581C76.246 23.3069 76.4164 23.6494 76.6098 23.9795C76.6722 24.0862 76.6897 24.1816 76.6473 24.2976C76.6073 24.4062 76.5824 24.5204 76.5455 24.6533C76.3116 24.2758 76.1132 23.9045 75.9241 23.529C75.7476 23.1783 75.5854 22.8215 75.4462 22.4546C75.41 22.3579 75.3651 22.3242 75.259 22.3248C74.1828 22.3292 73.1065 22.323 72.0309 22.3317C71.8668 22.3336 71.7626 22.2893 71.6927 22.1464C71.6678 22.0946 71.631 22.0484 71.5829 21.9736H71.757C72.8726 21.9736 73.9881 21.9723 75.1031 21.9755C75.2141 21.976 75.2484 21.9661 75.2048 21.8419C74.6826 20.3701 74.3906 18.854 74.3481 17.2917C74.345 17.1756 74.2807 17.1974 74.2158 17.1974C72.9281 17.1974 71.6409 17.1944 70.3538 17.2012C70.2009 17.2025 70.1654 17.1532 70.1891 17.0203C70.1953 16.9866 70.1984 16.9516 70.1972 16.9173C70.1941 16.8125 70.2365 16.7807 70.3457 16.782C71.1125 16.7869 71.8786 16.7844 72.6455 16.7844C73.1714 16.7844 73.6967 16.7826 74.2227 16.7863C74.3138 16.7869 74.3475 16.7695 74.3475 16.6677C74.3519 15.1242 74.6114 13.6225 75.0943 12.1575C75.1336 12.0383 75.118 12.0103 74.9902 12.0109C73.9881 12.0152 72.9855 12.0134 71.9829 12.0134H71.7869C71.873 11.8717 71.9448 11.7489 72.0221 11.6284C72.0584 11.5716 72.1214 11.5966 72.1725 11.5966C73.1602 11.5954 74.1478 11.5935 75.1355 11.5985C75.2472 11.5991 75.2934 11.5654 75.3333 11.4618C75.9603 9.82656 76.8419 8.33787 77.9419 6.97711C77.9749 6.93598 78.0049 6.89289 78.0535 6.82736H77.4396C77.7104 6.6334 77.9587 6.40126 78.3231 6.46492C78.3724 6.47364 78.4173 6.46617 78.451 6.41562C78.6588 6.09743 78.977 5.9264 79.3083 5.7711C79.4661 5.69681 79.6202 5.61635 79.7843 5.55206C79.5042 5.84844 79.2097 6.12608 78.9533 6.44056C78.987 6.48423 79.0293 6.46425 79.065 6.46425C80.7158 6.46554 82.3667 6.46425 84.0176 6.46863C84.1237 6.46863 84.1711 6.42746 84.2191 6.34382C84.8599 5.23201 85.6273 4.21572 86.5195 3.29348C86.5725 3.23801 86.6281 3.20305 86.7054 3.18807C86.8858 3.15254 87.0642 3.10694 87.2526 3.07891C86.2275 4.08903 85.3496 5.20769 84.6034 6.46555H84.7476C86.3205 6.46555 87.8927 6.46425 89.465 6.46863C89.5785 6.46863 89.6228 6.43372 89.6565 6.32702C89.9741 5.32749 90.3116 4.33422 90.7771 3.39147C90.9137 3.11445 91.0685 2.84615 91.2008 2.5673C91.2582 2.44688 91.3399 2.40383 91.4621 2.40195C91.5501 2.4007 91.6381 2.39319 91.7441 2.38818C91.6057 2.6403 91.4715 2.87673 91.3442 3.11758C90.8008 4.14889 90.3903 5.23513 90.0415 6.34574C90.0097 6.4474 90.0346 6.47859 90.1357 6.46617C90.1744 6.46116 90.2143 6.46555 90.2536 6.46555C97.5703 6.46555 104.887 6.46617 112.203 6.46304C112.376 6.46242 112.529 6.48736 112.674 6.5878C112.786 6.66514 112.909 6.72633 113.028 6.81927H112.864C101.494 6.81927 90.1239 6.81989 78.753 6.81676C78.6338 6.81676 78.5571 6.85047 78.4809 6.94282C77.361 8.30483 76.432 9.78163 75.7738 11.4225C75.7538 11.4712 75.7376 11.5217 75.7114 11.5954V11.5954Z" fill="white"/>
<path fill-rule="evenodd" clip-rule="evenodd" d="M115.28 22.3323H115.121C113.268 22.3323 111.416 22.3323 109.563 22.3323C109.376 22.3323 109.389 22.3348 109.424 22.1551C109.454 22.0042 109.522 21.9692 109.671 21.9699C111.538 21.9761 113.405 21.9724 115.272 21.9774C115.41 21.9774 115.473 21.9418 115.521 21.8076C116.033 20.3633 116.327 18.8783 116.387 17.3472C116.393 17.2093 116.344 17.2 116.232 17.2006C114.473 17.2031 112.714 17.2025 110.955 17.2025C110.769 17.2025 110.769 17.2025 110.816 17.0228C110.878 16.7845 110.878 16.7845 111.129 16.7845C112.829 16.7845 114.529 16.7832 116.229 16.7876C116.354 16.7882 116.393 16.7657 116.392 16.6304C116.368 15.0937 116.13 13.5932 115.653 12.1307C115.622 12.0353 115.582 12.0059 115.481 12.0059C114.434 12.0103 113.387 12.0091 112.341 12.0091H112.182C112.179 11.9891 112.175 11.9791 112.176 11.9704C112.259 11.5961 112.259 11.5961 112.647 11.5961C113.537 11.5961 114.426 11.5941 115.315 11.5979C115.426 11.5985 115.463 11.5898 115.408 11.4675C114.853 10.2234 114.213 9.02801 113.415 7.92053C113.332 7.80573 113.298 7.70403 113.353 7.57176C113.385 7.49563 113.401 7.41267 113.424 7.33404C113.482 7.32157 113.492 7.37025 113.513 7.39769C114.464 8.64674 115.237 9.99566 115.794 11.465C115.835 11.571 115.886 11.5992 115.995 11.5985C117.022 11.5941 118.049 11.5985 119.076 11.5923C119.204 11.5917 119.275 11.6297 119.323 11.7433C119.359 11.8275 119.409 11.9055 119.463 12.0034H116.003C116.005 12.1226 116.054 12.2149 116.084 12.3116C116.513 13.683 116.762 15.0831 116.777 16.5225C116.779 16.7845 116.781 16.7845 117.045 16.7845C118.244 16.7845 119.443 16.7857 120.642 16.7826C120.741 16.782 120.781 16.8007 120.799 16.9099C120.846 17.1987 120.854 17.1981 120.559 17.1981C119.346 17.1981 118.132 17.1987 116.919 17.1956C116.811 17.195 116.777 17.2212 116.774 17.3329C116.737 18.8559 116.449 20.3327 115.952 21.7714C115.93 21.8351 115.909 21.9 115.884 21.9748H119.281C119.199 22.0903 119.128 22.1876 119.059 22.2862C119.016 22.3486 118.953 22.3267 118.898 22.3267C117.895 22.328 116.893 22.3305 115.891 22.3242C115.766 22.3236 115.717 22.3654 115.672 22.4777C115.014 24.1348 114.081 25.626 112.944 26.9948C112.905 27.0429 112.866 27.0916 112.813 27.1583H113.692C113.386 27.3636 113.132 27.5764 112.771 27.5165C112.547 27.479 112.394 27.5664 112.244 27.7386C111.838 28.2034 111.299 28.5291 110.656 28.7325C110.884 28.5197 111.09 28.3319 111.289 28.1379C111.488 27.9439 111.68 27.743 111.876 27.5433C111.834 27.5046 111.788 27.5227 111.747 27.5221C110.145 27.5214 108.543 27.5221 106.941 27.5196C106.842 27.519 106.784 27.5465 106.731 27.6356C106.035 28.8017 105.187 29.848 104.213 30.7939C104.167 30.8394 104.119 30.8719 104.051 30.885C103.84 30.9255 103.631 30.9748 103.384 31.0285C103.581 30.8463 103.753 30.6928 103.918 30.5331C104.815 29.664 105.593 28.6994 106.26 27.6444C106.28 27.6132 106.323 27.582 106.302 27.5421C106.281 27.4997 106.232 27.5227 106.195 27.5227C104.648 27.5214 103.1 27.5233 101.552 27.5183C101.438 27.5177 101.414 27.5751 101.387 27.6587C101.065 28.6638 100.684 29.6453 100.203 30.5868C100.047 30.8925 99.8821 31.1932 99.7018 31.4858C99.6462 31.575 99.3436 31.6761 99.2575 31.625C99.1983 31.5894 99.2276 31.5251 99.2501 31.4814C99.2925 31.3985 99.3468 31.3224 99.3955 31.2425C100.084 30.1132 100.58 28.8997 100.986 27.6462C101.016 27.5539 101.007 27.5052 100.895 27.5208C100.857 27.5258 100.817 27.5214 100.777 27.5214C93.3915 27.5214 86.0069 27.5208 78.6209 27.5246C78.4325 27.5246 78.2659 27.4971 78.1099 27.3873C78.002 27.3112 77.8815 27.2538 77.7662 27.1627H77.9277H111.538C111.749 27.1627 111.961 27.1608 112.172 27.1639C112.239 27.1652 112.289 27.1496 112.337 27.0941C113.538 25.709 114.533 24.1935 115.235 22.4939C115.255 22.4459 115.289 22.3997 115.28 22.3323V22.3323Z" fill="white"/>
<path fill-rule="evenodd" clip-rule="evenodd" d="M76.9565 27.5163C75.8384 27.5163 74.7622 27.5163 73.6872 27.517C73.6285 27.5176 73.5855 27.497 73.5411 27.4608C72.0569 26.2436 70.7603 24.8597 69.7596 23.2126C68.9373 21.8606 68.3714 20.41 68.1318 18.8421C67.7775 16.5217 68.1436 14.308 69.1575 12.1973C69.797 10.8672 70.6481 9.68298 71.6513 8.60545C73.261 6.87783 75.1496 5.51586 77.2054 4.37593C79.6824 3.00207 82.3128 2.0194 85.0499 1.30878C86.6322 0.897566 88.235 0.589349 89.8547 0.370982C91.0664 0.208134 92.2817 0.0883784 93.5034 0.034066C93.7492 0.0235165 93.9944 0.0197194 94.239 0.000989504C94.3307 -0.00589453 94.3338 0.0228458 94.3245 0.0964692C94.2353 0.817103 94.1498 1.53836 94.0618 2.25895C93.9676 3.03327 93.8678 3.8075 93.7798 4.5824C93.7654 4.70533 93.7311 4.73837 93.6107 4.72281C93.051 4.64981 92.4908 4.5824 91.9305 4.51754C91.8469 4.5082 91.822 4.48008 91.8325 4.39778C91.9168 3.72578 91.9997 3.05388 92.0802 2.38125C92.1252 2.00688 92.1339 2.08055 91.8288 2.1092C88.9638 2.38126 86.1518 2.92219 83.4122 3.81751C80.9333 4.62795 78.5768 5.69802 76.4031 7.14858C74.8458 8.18807 73.4357 9.3947 72.2784 10.8772C71.2875 12.1456 70.5464 13.5394 70.1851 15.1185C69.6972 17.2492 69.9761 19.2906 70.9157 21.251C71.715 22.9156 72.8816 24.2951 74.2556 25.5111C75.0704 26.2317 75.9463 26.8706 76.8654 27.4521C76.8848 27.4646 76.9034 27.4789 76.9565 27.5163V27.5163Z" fill="white" stroke="white" stroke-width="0.0762" stroke-miterlimit="22.9256"/>
<path fill-rule="evenodd" clip-rule="evenodd" d="M114.134 6.46571H114.263C115.28 6.46571 116.297 6.46634 117.314 6.46509C117.389 6.46509 117.455 6.47192 117.518 6.52373C118.907 7.66738 120.136 8.95577 121.11 10.4756C122.032 11.9138 122.666 13.4661 122.925 15.1601C123.25 17.2913 122.962 19.3452 122.111 21.3224C121.483 22.7805 120.599 24.072 119.534 25.2419C117.942 26.9926 116.059 28.372 114.005 29.5282C111.563 30.9033 108.968 31.8947 106.265 32.6159C104.733 33.0246 103.181 33.3372 101.611 33.563C100.139 33.7752 98.6593 33.9205 97.1719 33.9786C97.0546 33.9829 96.9373 33.9892 96.82 33.9991C96.7383 34.006 96.7183 33.9717 96.7283 33.8962C96.792 33.3952 96.8537 32.8929 96.9149 32.392C97.019 31.5347 97.1226 30.6774 97.2262 29.8202C97.2462 29.6591 97.268 29.4988 97.2843 29.3379C97.2905 29.2705 97.3198 29.2599 97.381 29.2673C97.9599 29.341 98.5389 29.4146 99.1192 29.4807C99.2246 29.4926 99.2296 29.5325 99.2184 29.6211C99.1248 30.3561 99.0381 31.0917 98.9451 31.826C98.9314 31.9353 98.9969 31.9096 99.0512 31.9041C99.4367 31.866 99.823 31.831 100.208 31.7849C101.211 31.6638 102.211 31.5135 103.203 31.3194C106.868 30.6026 110.366 29.4258 113.593 27.5136C115.22 26.5496 116.716 25.4178 118.003 24.0252C119.217 22.7112 120.167 21.2369 120.699 19.5137C121.006 18.5147 121.147 17.4922 121.097 16.4484C121.014 14.6927 120.449 13.0892 119.516 11.6087C118.517 10.0264 117.215 8.73051 115.735 7.60189C115.239 7.22317 114.726 6.87004 114.199 6.53562C114.177 6.52127 114.144 6.51501 114.134 6.46571V6.46571Z" fill="white"/>
</g>
<defs>
<clipPath id="clip0">
<rect width="191" height="34" fill="white"/>
</clipPath>
</defs>
</svg>
