<svg width="90" height="90" viewBox="0 0 90 90" fill="none" xmlns="http://www.w3.org/2000/svg">
<path opacity="0.1" d="M34.6343 2.60514L5.48957 24.5117C3.21582 26.2179 1.52136 28.6365 0.651947 31.4168C-0.217471 34.1971 -0.216644 37.1945 0.654307 39.9743L11.7501 75.2418C12.6146 77.9951 14.2896 80.3927 16.5357 82.0923C18.7819 83.7918 21.4845 84.7066 24.2578 84.7059H60.449C63.2223 84.7066 65.925 83.7918 68.1711 82.0923C70.4173 80.3927 72.0922 77.9951 72.9568 75.2418L84.0526 39.9743C84.9235 37.1945 84.9243 34.1971 84.0549 31.4168C83.1855 28.6365 81.491 26.2179 79.2173 24.5117L50.0326 2.60514C47.7926 0.911672 45.0983 0 42.3335 0C39.5686 0 36.8743 0.911672 34.6343 2.60514Z" fill="#22446D"/>
<path d="M71.2024 37.7206H35.0124C33.5848 37.7206 32.4272 36.5811 32.4272 35.1753V24.9944C32.4272 13.7487 41.686 4.63239 53.1074 4.63239C64.5287 4.63239 73.7875 13.7487 73.7875 24.9944V35.1753C73.7875 36.5811 72.63 37.7206 71.2024 37.7206ZM37.5972 32.6302H68.6173V24.9947C68.6173 16.5605 61.6733 9.72311 53.1074 9.72311C44.5414 9.72311 37.5972 16.5602 37.5972 24.9947V32.6302Z" fill="url(#paint0_linear)"/>
<path d="M30.0275 32.7574H76.1853C77.6015 32.7574 78.7498 33.8684 78.7498 35.2391V62.5367C78.7498 70.76 71.8614 77.4265 63.3637 77.4265H42.8491C34.3517 77.4265 27.463 70.7603 27.463 62.5367V35.2391C27.463 33.8687 28.611 32.7574 30.0275 32.7574Z" fill="url(#paint1_linear)"/>
<path d="M53.1079 57.5737C48.9963 57.5737 45.6631 54.2405 45.6631 50.1288C45.6631 46.0172 48.9963 42.684 53.1079 42.684C57.2196 42.684 60.5528 46.0172 60.5528 50.1288C60.5528 54.2405 57.2196 57.5737 53.1079 57.5737ZM53.1079 47.6474C51.7375 47.6474 50.6262 48.7584 50.6262 50.1291C50.6262 51.4998 51.7372 52.6108 53.1079 52.6108C54.4784 52.6108 55.5897 51.4998 55.5897 50.1291C55.5897 48.7584 54.4784 47.6474 53.1079 47.6474Z" fill="#F4FEFF"/>
<path d="M53.1071 65.8456C51.7367 65.8456 50.6255 64.6605 50.6255 63.1985V55.2574C50.6255 53.7956 51.7364 52.6103 53.1071 52.6103C54.4775 52.6103 55.5887 53.7953 55.5887 55.2574V63.1985C55.5887 64.6605 54.4775 65.8456 53.1071 65.8456Z" fill="#F4FEFF"/>
<path d="M35.0741 44.3382H28.1257C26.8466 44.3382 25.8094 43.2273 25.8094 41.8566C25.8094 40.4859 26.8463 39.375 28.1257 39.375H35.0741C36.3532 39.375 37.3903 40.4859 37.3903 41.8566C37.3903 43.2273 36.3532 44.3382 35.0741 44.3382Z" fill="#F4FEFF"/>
<path d="M35.0741 54.2648H28.1257C26.8466 54.2648 25.8094 53.1539 25.8094 51.7832C25.8094 50.4125 26.8463 49.3016 28.1257 49.3016H35.0741C36.3532 49.3016 37.3903 50.4125 37.3903 51.7832C37.3903 53.1539 36.3532 54.2648 35.0741 54.2648Z" fill="#F4FEFF"/>
<path d="M35.0741 65.8456H28.1257C26.8466 65.8456 25.8094 64.7347 25.8094 63.364C25.8094 61.9933 26.8463 60.8824 28.1257 60.8824H35.0741C36.3532 60.8824 37.3903 61.9933 37.3903 63.364C37.3903 64.7347 36.3532 65.8456 35.0741 65.8456Z" fill="#F4FEFF"/>
<path d="M78.0884 44.3382H71.14C69.8609 44.3382 68.8237 43.2273 68.8237 41.8566C68.8237 40.4859 69.8606 39.375 71.14 39.375H78.0884C79.3675 39.375 80.4046 40.4859 80.4046 41.8566C80.4046 43.2273 79.3675 44.3382 78.0884 44.3382Z" fill="#F4FEFF"/>
<path d="M78.0884 54.2648H71.14C69.8609 54.2648 68.8237 53.1539 68.8237 51.7832C68.8237 50.4125 69.8606 49.3016 71.14 49.3016H78.0884C79.3675 49.3016 80.4046 50.4125 80.4046 51.7832C80.4046 53.1539 79.3675 54.2648 78.0884 54.2648Z" fill="#F4FEFF"/>
<path d="M78.0884 65.8456H71.14C69.8609 65.8456 68.8237 64.7347 68.8237 63.364C68.8237 61.9933 69.8606 60.8824 71.14 60.8824H78.0884C79.3675 60.8824 80.4046 61.9933 80.4046 63.364C80.4046 64.7347 79.3675 65.8456 78.0884 65.8456Z" fill="#F4FEFF"/>
<defs>
<linearGradient id="paint0_linear" x1="53.1074" y1="4.63239" x2="53.1074" y2="37.7206" gradientUnits="userSpaceOnUse">
<stop stop-color="#0E3059"/>
<stop offset="1" stop-color="#081C33"/>
</linearGradient>
<linearGradient id="paint1_linear" x1="27.463" y1="77.4265" x2="71.7092" y2="26.6253" gradientUnits="userSpaceOnUse">
<stop stop-color="#43C7D9"/>
<stop offset="1" stop-color="#0E5F93"/>
</linearGradient>
</defs>
</svg>
